/* XPM */
static char *_dac34ceedaf4726a30fe0706115091aAFyc5oFa2SMDvIl9[] = {
/* columns rows colors chars-per-pixel */
"50 50 144 2 ",
"   c None",
".  c #BC7713",
"X  c #BE7A15",
"o  c #BF7C1B",
"O  c #C17D14",
"+  c #D78E0E",
"@  c #D6980F",
"#  c #C48114",
"$  c #CA8512",
"%  c #C78914",
"&  c #C98814",
"*  c #C4831B",
"=  c #D39412",
"-  c #EB9E05",
";  c #E1970A",
":  c #E69C0A",
">  c #DAA511",
",  c #DFAE13",
"<  c #EFA100",
"1  c #E4AD0C",
"2  c #E8AC0F",
"3  c #F2A400",
"4  c #F7AA00",
"5  c #F8AD04",
"6  c #F7AB0C",
"7  c #EFBF0B",
"8  c #F7B005",
"9  c #F8B205",
"0  c #F1BF07",
"q  c #F5B70E",
"w  c #F9B50A",
"e  c #FBBE0F",
"r  c #F7AC12",
"t  c #E3B513",
"y  c #EEB410",
"u  c #FCBF10",
"i  c #F7B11D",
"p  c #C08121",
"a  c #D79F2C",
"s  c #C68D34",
"d  c #C88E34",
"f  c #CB953E",
"g  c #D89B31",
"h  c #E1B526",
"j  c #E6B825",
"k  c #F7B425",
"l  c #F3BD24",
"z  c #ECB830",
"x  c #F8BD3D",
"c  c #FDC403",
"v  c #FFCE00",
"b  c #FCC10F",
"n  c #FFCD0C",
"m  c #FFD004",
"M  c #FFD40A",
"N  c #FFDB0E",
"B  c #FCC010",
"V  c #FFCE13",
"C  c #FFD313",
"Z  c #FFDD11",
"A  c #FFD119",
"S  c #FFDC1C",
"D  c #FBC122",
"F  c #FCC329",
"G  c #FFD125",
"H  c #FFD32B",
"J  c #FFDD2E",
"K  c #FBC433",
"L  c #FCCD3B",
"P  c #FFD631",
"I  c #FFD63C",
"U  c #FFDB3C",
"Y  c #FFE13C",
"T  c #D4A64F",
"R  c #D5A84D",
"E  c #D3A551",
"W  c #D6AB58",
"Q  c #E0B84C",
"!  c #DCB664",
"~  c #FCCC40",
"^  c #FFD940",
"/  c #FDD24C",
"(  c #FFD949",
")  c #FAC856",
"_  c #FACB5B",
"`  c #FCD257",
"'  c #FFDC52",
"]  c #FDD45A",
"[  c #FFE347",
"{  c #FFE44E",
"}  c #FFE453",
"|  c #FFE659",
" . c #FACF65",
".. c #FDD760",
"X. c #FCDA64",
"o. c #FDDB6A",
"O. c #E3C77B",
"+. c #E6CA7B",
"@. c #FEDE70",
"#. c #F2D87D",
"$. c #FFE664",
"%. c #FFE866",
"&. c #FFE269",
"*. c #FFE96C",
"=. c #FEE374",
"-. c #FFEA75",
";. c #FDE37E",
":. c #FFEB7B",
">. c #E7CE82",
",. c #FFEC85",
"<. c #FFED85",
"1. c #FFEC84",
"2. c #F3E18E",
"3. c #FDE789",
"4. c #FFED89",
"5. c #FFEF8A",
"6. c #FEEB8D",
"7. c #FFEF8E",
"8. c #FFEE8C",
"9. c #FFF08D",
"0. c #FFF08E",
"q. c #FFF08C",
"w. c #F6E897",
"e. c #FFEF90",
"r. c #FDEF96",
"t. c #FEEE93",
"y. c #F8EA9A",
"u. c #FAED9B",
"i. c #FAEC9A",
"p. c #FFF193",
"a. c #FFF094",
"s. c #FFF296",
"d. c #FFF297",
"f. c #FFF194",
"g. c #FFF399",
"h. c #FFF19E",
"j. c #FDF29E",
"k. c #FFF29E",
"l. c #FFF49F",
"z. c #FFF39E",
"x. c #FCF0A1",
"c. c #FFF4A0",
"v. c #FFF5A2",
"b. c #FFF5A3",
/* pixels */
"                                        } { { } { { { { { }                                         ",
"                                { { { %.-.I M v v v v N S Y { { } {                                 ",
"                            { { 0.( v v v v v v v v Z Z Z Z Z Z M [ { {                             ",
"                        } { l.n v v v v v v v v v Z Z Z Z Z N M v m v U { {                         ",
"                      { s.A v v v v m M -.u.O.E f f W >.x.-.N v v v v v v { {                       ",
"                  { } :.v v v m m ;.d X X X . O O # $ # O . X ! 4.v v v N Z Z { {                   ",
"                { -.H v v v v Q X X X . + - 3 - 4 4 4 4 4 4 < - ; o k.N Z Z Z Z { {                 ",
"              { q.n v v v 0 X . . O < < < < < 4 4 4 4 4 4 3 < 3 < < 3 g *.Z Z Z Z { {               ",
"            { q.v v v v # X X . 3 < < < < < 3 4 4 4 4 4 3 < < 3 4 4 4 e u k.Z Z Z Z [ {             ",
"          { -.n v v v . X . = 3 < < < < < 4 4 4 6 r i 4 - 4 4 4 4 4 u u B B =.N Z m v { {           ",
"          } H v m m . X o < < < < < < < < 8 4 8 Z v v - 4 4 4 4 4 B B B B B B ..M v v v {           ",
"        { 6.v v v . X X 3 < < < < < < < 4 4 4 8 v v v X 4 4 4 4 u B B B B u B B =.v m Z Z {         ",
"      { p.v v v # . . < < < < < < < < 4 4 4 4 4 v m v . 4 4 4 b B B B B B B B u 5 u.Z Z Z [ {       ",
"      { H v v c X X < < < < < < < < 4 4 4 3 k n v v v b 4 4 e B B B B B B B u 5 4 4 $.Z Z Z {       ",
"    { l.v v v X X $ 3 < < < < < < 4 4 4 x J v v v v v v N Z b B B B B B B B 5 4 4 4 L Z Z Z U {     ",
"    { H v v = X X < 3 < < < < < 4 4 4 ) N v v v v v m Z Z Z Z C B B B B B w 4 4 4 e u r.Z Z Z {     ",
"  { 0.v v m X X - < 3 < < < < 4 4 4 4 S v v v v v v Z Z Z Z Z Z & u B B e 4 4 4 e B B F Z Z Z } {   ",
"  { <.v v j X X < < < < < < 4 4 4 4 3.v v v v v v , t Z Z Z Z % . b B e 4 4 4 e B B B B -.Z Z Z {   ",
"  { V v v X X : < < < < < 4 4 4 4 4 =.v v v v 1 . & y 2 O Z > X B B B 4 4 4 e u B B B B ;.Z Z Z {   ",
"  -.v v H . X < < < < < 3 4 4 4 4 4 H v v v m . ; B u B B B X y B B 4 4 4 9 u u B B B B u N Z Z {   ",
"} c.v v X.X O < < < < 3 4 4 4 4 4 4 P v v v m R b B B B B B B B B 4 4 4 5 e B B B B B B B } Z Z Y { ",
"{ p.v v a X - < < < 3 4 4 4 4 4 4 < :.m v m Z Z o.B B B B B B b 4 4 4 4 B B B B B B B B u g.Z Z A { ",
"{ &.v v X X 3 < < < 4 4 4 4 4 4 < 3 _ v v Z Z Z Z $.` u B B e 3 4 4 4 e B B B B B B B B B 4.Z v v { ",
"{ ^ v v X X - < - 4 4 4 4 4 4 < < 4 4 s.Z Z Z Z Z Z Z { ] B 8 4 4 3 u B B B B B B B B B B o.v v v { ",
"{ H v v X X - 3 4 4 4 4 4 4 < < < 4 4 4 g.Z Z Z Z Z Z Z v :.6 3 4 e B B B B B B B B B B B L v m v { ",
"{ G v v X X - 4 4 4 4 4 4 < < < 4 4 4 9 B @.J Z Z Z Z v v v J 6 B B B B B B B B B B B B B K v v v { ",
"{ U v v . . 4 4 4 4 4 4 3 < < < 4 4 4 B B B b 2.S Z v v v v Z | b u B B B B B B B B B B u x v v v { ",
"{ *.v v O . 4 4 4 4 4 3 < < < < 4 4 e B B B B u e y.v v v Z Z Z ! B B B B B B u u B B u 4  .v v V { ",
"{ s.v Z E X 4 4 4 4 3 < < < < < 4 u B B B B B B B u x n Z Z Z Z s.e b B B B B B B B e 4 4 =.v v I { ",
"} b.Z Z y.X 4 4 4 4 < < < < < < u u B B B B B B B 4 4 u.Z Z Z Z -.= u B B B B B B u 5 4 4 ( v v -.{ ",
"  -.Z Z :.O 5 4 4 < < < < < < w B B B B b u u u 4 4 4 6.Z Z Z Z 1.# B B B B B B u 8 4 4 4 v v v *.  ",
"  { Z Z Z . : 4 < < < < < < 4 w B B b Z Z o.e 4 4 4 5 %.Z Z Z Z y.& B B B B B B w 4 4 4 r v v v {   ",
"  { <.Z Z +.X < < < < < < 4 4 w B B Z Z N v V 4.t.s.U Z Z Z Z Z s 1 B B B B B e 4 4 4 4 G v v ( {   ",
"  { 0.Z M &.. 3 < < < < 4 4 4 w B b Z Z v v v N Z Z Z Z Z Z Z -.X b B B B B e 4 4 4 4 4 v v v 0.{   ",
"    { J v v E ; < < < 3 4 4 4 8 B B Z v v v M N Z Z Z Z Z Z J o & B B B B e 4 4 4 4 4 9 v v n {     ",
"    { k.v v *.. < < < 4 4 4 4 4 u u b @ v m Z Z Z Z Z Z Z %.X . B B B B b 4 4 4 4 4 4 v v v x.{     ",
"      { H v v #.: 3 4 4 5 4 4 4 B B e 4 < . t Z Z Z Z h X . = B B B B e 4 4 4 4 4 4 c v v A [       ",
"      { s.v v Z * 4 4 4 4 4 4 4 e u 4 4 5 e B z Z Z Z X y B B B B B u 4 4 4 4 4 4 4 v v v s.}       ",
"        { 1.N Z } O 4 5 4 4 4 4 B 4 4 4 q u B / Z Z Z X b B B B B e 4 4 4 4 4 4 4 v v v :.{         ",
"          { J N Z -.: 4 4 4 4 4 3 4 4 9 B u B ..Z Z Z X b B B B B 5 4 4 4 4 4 4 v v v H }           ",
"          { $.Z Z Z -.4 4 4 4 < < 4 5 u u B B D l p O . b B u u 5 4 4 4 4 4 4 v v v n -.{           ",
"            { *.Z Z Z U 5 4 < < < 4 u u B B B u B B B b u B u w 4 4 4 4 4 4 v v v v q.{             ",
"              { *.Z Z N v L < < < 5 u u B B B B B B B B B B e 4 4 4 4 4 v v v v n q.{               ",
"                { { Z v v v S q 4 4 e u B B B B B B B B B e 4 4 4 4 9 v v v v H -.{                 ",
"                  { { A v M Z Z Z n 5 u e e B B B B B B b 4 4 4 c v v v v v 1.} {                   ",
"                      { [ Z Z Z Z Z Z Z Z V B b B B B B 9 v v v v v v v A p.{                       ",
"                        } { Y Z Z Z Z Z Z Z Z Z Z M m v v v v v v v V k.{ {                         ",
"                            { { [ S Z Z Z Z Z Z N v v v v v m v &.-.{ {                             ",
"                                { { { { Y S N N m v v C ' -.} { } {                                 ",
"                                        { } { { { { } { { {                                         "
};
