/* XPM */
static char *_cf69482b9b94321cba09abb4bbbf882DKi68mlApHuahhgD[] = {
/* columns rows colors chars-per-pixel */
"50 50 183 2 ",
"   c None",
".  c #391700",
"X  c #381800",
"o  c #391800",
"O  c #3A1800",
"+  c #3A1A03",
"@  c #3C1902",
"#  c #3A1904",
"$  c #3C1904",
"%  c #3E1A04",
"&  c #441C05",
"*  c #471C0B",
"=  c #481C0B",
"-  c #4C1E0C",
";  c #4D1E0C",
":  c #4D1D0E",
">  c #501F0C",
",  c #45250A",
"<  c #50200C",
"1  c #52210C",
"2  c #5A240D",
"3  c #5B250D",
"4  c #5C250D",
"5  c #5C250E",
"6  c #5D2810",
"7  c #622710",
"8  c #642713",
"9  c #662910",
"0  c #712B17",
"q  c #633313",
"w  c #62371F",
"e  c #63371F",
"r  c #643B1E",
"t  c #6A2521",
"y  c #6F2724",
"u  c #702724",
"i  c #702824",
"p  c #712824",
"a  c #702924",
"s  c #702825",
"d  c #712925",
"f  c #722824",
"g  c #732924",
"h  c #712A25",
"j  c #722B25",
"k  c #742924",
"l  c #752A24",
"z  c #762A24",
"x  c #772A24",
"c  c #782B24",
"v  c #792B24",
"b  c #7B2C25",
"n  c #7C2D25",
"m  c #7D2D25",
"M  c #7D2E25",
"N  c #7F2E25",
"B  c #773127",
"V  c #6E4A1D",
"C  c #6E4A1E",
"Z  c #6F4B1E",
"A  c #6F4C1E",
"S  c #694E4E",
"D  c #7E656D",
"F  c #7E656E",
"G  c #8C371B",
"H  c #812F25",
"J  c #822F25",
"K  c #833025",
"L  c #843025",
"P  c #853025",
"I  c #863125",
"U  c #883225",
"Y  c #883325",
"T  c #8B3325",
"R  c #8C3425",
"E  c #8E3426",
"W  c #8F3526",
"Q  c #903626",
"!  c #913626",
"~  c #923626",
"^  c #933726",
"/  c #943726",
"(  c #953826",
")  c #963826",
"_  c #973926",
"`  c #983926",
"'  c #993926",
"]  c #993A26",
"[  c #9A3A26",
"{  c #9C3B26",
"}  c #A03F22",
"|  c #A13D27",
" . c #A23E27",
".. c #A53F27",
"X. c #945534",
"o. c #A64027",
"O. c #AA4224",
"+. c #A84027",
"@. c #A94127",
"#. c #AA4227",
"$. c #AF4428",
"%. c #B24527",
"&. c #B34627",
"*. c #B44627",
"=. c #B24528",
"-. c #B34528",
";. c #B34628",
":. c #B44628",
">. c #B54628",
",. c #B54728",
"<. c #B64728",
"1. c #B54F30",
"2. c #BA5233",
"3. c #A96C3D",
"4. c #A96D3D",
"5. c #C16A36",
"6. c #C26A36",
"7. c #CD753C",
"8. c #A25B46",
"9. c #A45D47",
"0. c #9E6245",
"q. c #9F6345",
"w. c #AF6E46",
"e. c #AD664D",
"r. c #BA7F45",
"t. c #B37252",
"y. c #B47352",
"u. c #B57352",
"i. c #BD7657",
"p. c #BB7D51",
"a. c #C27756",
"s. c #C77C59",
"d. c #C47C5B",
"f. c #C97E5B",
"g. c #CB7F5B",
"h. c #BA8045",
"j. c #BB8145",
"k. c #BB8245",
"l. c #BC8245",
"z. c #BC8346",
"x. c #BD8446",
"c. c #BE8446",
"v. c #C9914B",
"b. c #C9924B",
"n. c #CA825F",
"m. c #D59F51",
"M. c #D7A74F",
"N. c #D6A051",
"B. c #D7A151",
"V. c #D4A350",
"C. c #D7A152",
"Z. c #D5A450",
"A. c #D7A850",
"S. c #D8A950",
"D. c #E0AB55",
"F. c #E0AC55",
"G. c #EDB55F",
"H. c #F3BF5F",
"J. c #CD8561",
"K. c #D49061",
"L. c #D79560",
"P. c #D89560",
"I. c #DFA260",
"U. c #E0A260",
"Y. c #E4A960",
"T. c #E9B060",
"R. c #EAB260",
"E. c #F5C25E",
"W. c #F6C35F",
"Q. c #F6C45F",
"!. c #F7C55F",
"~. c #F7C560",
"^. c #F7C563",
"/. c #F7C663",
"(. c #EABE99",
"). c #E5BDAB",
"_. c #EDC08A",
"`. c #F8D190",
"'. c #F8D191",
"]. c #F8D8AD",
"[. c #F8DFC8",
"{. c #F9E8E7",
"}. c #F9E8E8",
/* pixels */
"                                                                                                    ",
"                                                                                                    ",
"  F S o o o o o o o . . o o o o o o o o o o o o o o o o o o o o o o o X o o o o o o o o o o o X F   ",
"  # 3 &.&.s.n.n.n.n.n.n.n.n.n.n.n.n.n.n.n.n.n.n.n.n.n.n.n.n.n.n.n.n.n.n.n.n.n.n.n.n.n.n.s.&.;.;.o   ",
"  o 3 <.<.a.s.d.d.d.d.d.d.d.d.d.s.d.d.d.d.d.n.f.d.d.f.n.s.d.d.d.d.d.d.d.d.d.d.s.s.d.d.d.a.<.<.<.o   ",
"  o 5 <.<.x y y y y y y y y y y y y y y y y <.@.y u #.<.y y y y y y y y y y y y y y y y x <.<.<.o   ",
"  o 3 <.<.x y y y y y y y y y y y y y y y y <.@.y y @.<.y y y y y y y y y y u u y y y y x <.<.<.o   ",
"  o 3 <.<.x y y y y y y y y y u y y y y y y <.@.y y @.<.y y y y y y y y y y u u y y y y x <.<.<.o   ",
"  o 5 <.<.] _ / _ / _ / ] / / ] / _ _ y y y y y y y y y y y y _ _ / ] / ` / / / ( ( _ u v <.<.<.o   ",
"  o 5 <.<.I H H H H H H H / / J _ I H 9.w.l.j.j.l.l.l.j.l.w.9.8 0 / H H / H H H H H H y z <.<.*.o   ",
"  o 1 _ _ f y y y y u x H _ ~ u J x y I.R.!.!.!.!.!.!.!.~.R.C.$ ; I u u ] H z y u y y y a ' _ _ o   ",
"  o * y y y y y y y y m / / ~ y y y f !.!.!.!.!.W.!.!.!.~.~.~.$ = u u a / ` m y y y y y y u y a o   ",
"  o 5 *.<.<.;.y y y ` / ` / ~ y y y y !.!.!.J.t.X X y.J.!.!.!.. * y y u ` / ` / y u u *.<.<.<.<.o   ",
"  o 6 1.o.*.<.y f x / ] / ` ~ y y y y !.!.!.t.0.X X e.y.!.!.!.. * y y u / ` / ` z a u *.<.{ 1.2.o   ",
"  o e y.X O.&.y Y _ / / ` / / y y y f !.!.!.X X X X o o !.!.!.o * y y z ` / ` / / Y y *.O.. y.J.o   ",
"  o C V.X O.;.y Y / ] / / ` ~ u y y y !.!.W.t t t t t t !.!.!.o * y y u / ` / ` / Y y *.#.. M.H.o   ",
"  o A A.. O.;.y I _ ^ _ ^ _ ~ y y y f /.~.^.u u u u u u ^.^.^.o = u u z / / _ / _ I y &.O.o S.!.o   ",
"  o A Z.. #.<.y y y y y y y f / _ c y }.}.{.u u y y s j }.}.}.o 1 _ / / y u y y y y y <.#.. S.!.o   ",
"  o q 5.G &.<.y y y y y y y x _ _ v y '.'.'.v.r.y y j.b.'.'.'.o 1 / _ / y y y y y y y ;.&.G 5.7.o   ",
"  o 3 <.<.<.<.u y y y y y y f / _ v a /.W.W.W.D.y y S.~.~.~.~.o 1 _ / / y y y y y y y ;.<.<.<.<.o   ",
"  o * y y y u / _ _ y y y y f _ / v s J.J.J.J.i.u u i.J.J.J.J.o 1 / _ / y y u u / _ / u u u y y o   ",
"  o * y u b m / _ / m x y y x / _ v s g.J.J.e.8.u u 8.e.J.J.J.o 1 _ / / y y b m / ]  .u u u y y o   ",
"  o - K H / / ` / / _ Y b u x / T z y m.P.P.X.X.X.X.X.X.P.m.P.o > E / / y x E / ]  .<.u f H H H o   ",
"  o 3 <.<.] ` / ] ] / _ / u u ~ y y a !.^.^.^.^.~.~.^.^.^.!./.o = u / / u / / / /  .<.u x <.<.<.o   ",
"  o 4 <.<.*.*.<.;.;.;.;.<.=.-.<.;.5 $ , , , , , , , , , , , , . 2 ;.;.<.=.;.;.<.;.;.<.f x <.<.<.o   ",
"  o 5 <.<.&.;.;.;.;.=.=.=.=.=.=.;.5 $ $ $ $ % $ $ $ $ & $ $ $ $ 5 ;.=.=.=.=.=.=.;.;.;.f x <.<.<.o   ",
"  o 5 <.<.x y y y y y y y y y u y y u y f y _ E y y E / u u y y u u u u y y y y y y y y x <.<.<.o   ",
"  o 5 <.<..... .............| Y y l.C.V.4.y _ E y y Q / u 3.m.m.l.u Y E ................o.<.<.<.o   ",
"  o 3 <.<.<.<.<.<.<.<.<.<.<.<.~ f V.^.W.j.y _ E y y E _ u l.~.!.m.u / ` <.<.<.<.<.<.<.<.<.<.<.<.o   ",
"  o 5 <.<.<.<.<.<.<.<.<.<.<.$.B /.[.{.!.!.!.y y y y y y !.].{.!.^.^.B x <.<.<.<.<.<.<.<.<.<.<.<.o   ",
"  o 1 _ _ _ _ <.<.<.<.<.<.<.$.B ^.(.).D.G.!.y y y y y f !._.).Y.Y.^.B f <.<.<.<.<.<.<./ _ _ _ _ o   ",
"  o * y y y f <.<.<.<.<.<.<.;.c ^.P.J.J.I.!.y y y y y y !.U.J.J.m./.B x <.<.<.<.<.<.<.u y y y y o   ",
"  o 5 *.<.<.*.y y y y y y y y y y m./.!.j.a _ E y y E _ y j./.!.V.y y y y y y y y y y <.<.*.<.<.o   ",
"  o C M.o O.<.y y y y y y y y y y f a f y y <.o.y y #.<.y f a j f y y y y y y y y y y ;.#.o M.W.o   ",
"  o A M.. #.;.y f f f f f f f f y y y x f y <.#.y y #.<.y y y y y y y y x f f x f f y ;.#.o M.!..   ",
"  o A S.. #.<.y I _ _ _ _ _ ~ y y y y ` I y <.#.y y #.<.y y y y y y u u _ / _ / _ I y <.O.o S.!.o   ",
"  o r p.o #.;.y Y ] ] / _ _ ~ y y y y / J y <.#.y y #.<.y y y y y y y f _ / ] / _ Y y <.O.o p.K.o   ",
"  o e u.o O.&.y Y / / _ _ / ~ y y u y / J y <.#.y y #.<.y y y y y y y f / _ / _ _ I y ;.O.o u.J.o   ",
"  o 5 *.<.<.<.a Y / _ / / _ ~ y u u y <.] u <.#.y y #.<.y y y u y u u f _ / _ / _ I y ;.<.<.<.<.o   ",
"  o 1 ~ ~ E E a b H H H H H H H Y J J <.] u <.#.y y #.<.K I I H I J I H H H H H K c y E ^ E ~ ~ o   ",
"  o * y y y y y u u y y y y f / / _ / <._ y <.#.y y #.<./ _ / _ _ _ _ ^ y y y y y y y y y y y y o   ",
"  o * a y y y <.Y u y y y y f _ _ / ] <._ y <.#.y y #.<._ / _ / / ^ _ ^ y y y y y Y <.f y y y y o   ",
"  o < M K M K <.Y y y y y y x / _ _ _ <._ y <.#.y y #.<./ _ _ _ _ / _ _ y y y y y Y <.f f K K M o   ",
"  o 5 <.<.<.<.<.~ b b m c m H ] { { ] <._ y <.#.y y $.<./ ] { { { ] { { c m m c m E <.f x <.<.<.o   ",
"  o 5 *.<.<.<.<.<.<.<.<.<.<.<.<.<.<.<.<./ y <.#.y y #.<._ o.<.<.<.<.<.<.;.<.<.<.<.<.<.f x <.<.<.o   ",
"  o 5 <.<.M c x x x x x b x x x x x x x x y <.#.y y #.<.f x x x b x x x c c c x x x x y x <.<.<.o   ",
"  o 5 <.<.c f y f f f y f y f f f y f f y u <.#.y y #.<.y f f f y f u f f f y f y f y f c <.<.<.o   ",
"  o 5 <.<.<.<.<.<.<.<.<.<.<.<.<.<.<.<.<.<.<.<.#.y y #.<.<.<.<.<.<.<.<.<.<.<.<.<.<.<.<.<.<.<.<.<.o   ",
"  o & 9 9 9 9 9 9 9 9 9 9 9 9 9 9 9 9 9 9 9 9 9 - - 8 9 9 9 9 9 9 9 9 9 9 9 9 9 9 9 9 9 9 9 9 9 o   ",
"  o o o o o o o o o o o o o o o o o o o o o o . o o . . o o o o o o o o o o o o o o o o o o o o o   "
};
