/* XPM */
static char *_565ee7fe9d8406eb8f45033a35b2f38aXsIlZTSUSNWPPNr[] = {
/* columns rows colors chars-per-pixel */
"50 50 152 2 ",
"   c #127F00",
".  c #197E00",
"X  c #277B00",
"o  c #0B8200",
"O  c #158400",
"+  c #1B8600",
"@  c #168A00",
"#  c #1C8B00",
"$  c #1E9100",
"%  c #258700",
"&  c #298600",
"*  c #238D00",
"=  c #298E00",
"-  c #249301",
";  c #2A9502",
":  c #269903",
">  c #2C9A05",
",  c #269608",
"<  c #2B9709",
"1  c #269909",
"2  c #2D9C0A",
"3  c #329504",
"4  c #339C05",
"5  c #399D05",
"6  c #329509",
"7  c #3A950A",
"8  c #339D0A",
"9  c #399D0C",
"0  c #2F9A10",
"q  c #339E11",
"w  c #3B9D13",
"e  c #2EA206",
"r  c #2DA10C",
"t  c #34A106",
"y  c #3AA207",
"u  c #34A20C",
"i  c #3BA30D",
"p  c #36A90E",
"a  c #3BA90E",
"s  c #2FA111",
"d  c #35A412",
"f  c #3BA512",
"g  c #36A914",
"h  c #3CAA14",
"j  c #3BA618",
"k  c #37A918",
"l  c #3EAE1B",
"z  c #3FAD19",
"x  c #3DAC19",
"c  c #3FB016",
"v  c #3CB019",
"b  c #3FB01A",
"n  c #3DB11B",
"m  c #3EAD20",
"M  c #439D13",
"N  c #4B9F15",
"B  c #41A00E",
"V  c #41A50D",
"C  c #43A80E",
"Z  c #41A90E",
"A  c #41A511",
"S  c #42A612",
"D  c #45A714",
"F  c #42A513",
"G  c #42A910",
"H  c #42AB10",
"J  c #43AA13",
"K  c #45A913",
"L  c #43AC12",
"P  c #41A916",
"I  c #43A917",
"U  c #45A915",
"Y  c #44AB14",
"T  c #46AA16",
"R  c #43AD15",
"E  c #43AD17",
"W  c #41AE15",
"Q  c #46AF15",
"!  c #43AB14",
"~  c #48A813",
"^  c #48AD13",
"/  c #49AD15",
"(  c #48AF16",
")  c #49AC15",
"_  c #43A71A",
"`  c #49A51C",
"'  c #40A919",
"]  c #45AB19",
"[  c #42AE1A",
"{  c #47AF1A",
"}  c #46AE1B",
"|  c #41AF1C",
" . c #45AE1E",
".. c #43AD1A",
"X. c #48AE1E",
"o. c #4AAE1A",
"O. c #51AE18",
"+. c #41B016",
"@. c #43B015",
"#. c #45B116",
"$. c #49B217",
"%. c #49B216",
"&. c #42B01B",
"*. c #47B018",
"=. c #44B319",
"-. c #46B51B",
";. c #45B61C",
":. c #46B71D",
">. c #45B21B",
",. c #4AB319",
"<. c #4BB21B",
"1. c #49B418",
"2. c #4FB41A",
"3. c #49B31F",
"4. c #4AB41E",
"5. c #4AB31C",
"6. c #47B91D",
"7. c #4CB91E",
"8. c #50B01B",
"9. c #52B31C",
"0. c #51BA1F",
"q. c #51BB1F",
"w. c #48AF20",
"e. c #53A920",
"r. c #46B322",
"t. c #45B421",
"y. c #49B722",
"u. c #4BB723",
"i. c #4BB421",
"p. c #47B821",
"a. c #4EBB20",
"s. c #4DBA23",
"d. c #4DBB24",
"f. c #52B622",
"g. c #52B920",
"h. c #51BA22",
"j. c #55BC23",
"k. c #57BF25",
"l. c #53BC24",
"z. c #59BC23",
"x. c #54BA28",
"c. c #55BF2B",
"v. c #56BE2B",
"b. c #4EC023",
"n. c #4DC129",
"m. c #54C125",
"M. c #58C227",
"N. c #55C22A",
"B. c #5BC32C",
"V. c #66CB31",
"C. c #62C836",
"Z. c #61D131",
/* pixels */
"0.h # g , , d u g O j r d.p y.p > u k u - 8 d 4 ' A ,.4 ; t c h 1 1 > 6 V O.D D = + u > O s 2 > , 0 ",
"C 4 g - 8 | 1 # u - : r > u , 2 [ * : 8 t.= 3.8 3 9 i ] a E t - : r ' o.U U 5 A x.= f z d O k 1 1 # ",
"1.; - - =.8 d - L k.8 1 : @ : q >.2 r g g 8 8 ] = P f ; i i h e @ # d # 4.i - 4 g.~ 9 h d - r @ j - ",
"p ;.: g > =.u = k.Z = f x $ j % 8 ; u 8 * ; 3 { - k f = 5.,.[ - v r k @ z > d 8 U 9 ; v.z 1 1 1 d d ",
"r p h - : @.%.^ %.,.% 9 f - f , - h e ; i Z 0.R - + i ; 9.V.V h @.> r $ 2 y.i P 7 7 & [ O h u $ v e ",
": : h t ;.Z / 5 A 8 f ] u f 4 i > p.E 8 a k.*.4 e p J L 3 3 y 4 d.a > > 8 8 8 8 & ` 8 k k v h ; e e ",
", 4 @.Z.R ] > w d > J f 8 2 P f * ;  .8 i P >.+ ; a *.a = 4 y 9.> @.0.V u a.' ; 8 P > v : > >.; t @.",
">.- 4 4 a f ; h 8 u ; ,.g 8 i 3 r.8 d + 8 h [ ; &.; *.h i L %.M.> i O.9.; f f d ; h 2 ; E a 8 a g.a ",
"f > t 4 f 4 f 2 h 1.a a ; = 9 f 3.- r u u f g # g f P y M.Z a A $ r p = 2 : d % s $ o , O.9.D 9 > u ",
"h a l.5 f 8 % l.a a i P g >.P V U 4 h u - * g - ; , , -.E a j - r 1 k ; + - d * : 1 @ 1 ) 9.o.9 u - ",
"8 8 L 4 > 4 9 9 > c > p > p V B.f.- , d k @ p : u h f - f , 8 + @ k f > ' A 4 4 r $ $ t.f 5 = 8 z r ",
"i E 4.8 h i M 7 L > r - v $ i / 4 8 8 &.s # a i ; -.&.+ f ; , j 0 2 q f 5 R 5.t 2 p.2 f u 9 8 w.h u ",
"u u 2 + P T N X w * - f 2 ; | 8 J 5.i p 2 - i / ; ; 8 = j 5 % f h > $ 2 a 0.R 5 , - 1 2 p 5 o.i j : ",
"h E d - h A e.M j 8 ; f h ; % : a %.i 4 2 1 a z.* w j f 3 V o.D L h h O a M.4 3.i d q ; -.; 5 ' > 1 ",
"; A t.u u 1 = 9 6 8 , # t a O j ; - i ;.n r ; P 2 < r.5 / R a ,.0.4 h 4 a J f f 8 o.+ f E 7.u x 2 g ",
"i i E # p # d f 3 z 2 n.a p.O m z - i h # # > 2 < * o.5 / ^ u 4 4 J y A ,.3 h 2 f w ' > - h e d : - ",
"2 g 5.i 7.a h 8 h 2 $ j - p.+ t.[ - 2 - h d =  .; 8 ] 8 L t - u 8 w 3 q.~ 4 - 0 # 1 w.2 f - ; : 1 @ ",
"- 8 4 i 1.a i a i - - : r - - z d 1 2 * f w % z < 9 i y = 4.> r P ; 1.y G ,.@ 1 s 2 * < y.1 2 r g d.",
"t.* ; J H ; ) a 4 + C.; : s $ t.$ - z 8 7  .: ;.2 - =.; j.>.: f f > R u 9 8 + v ' g - d - : d.4 d 8 ",
"8 4 ; B.Z M.) i f f ] p r : u - , r 8 9 5 2 ; v x 1 t.8 a ; d f 8 ] f 4 ' 2 > a 4 &., $ $ - @.8 f - ",
"f Z f.G i ] Z ^ ; z # r + [ h ; 2 u 4 a R u # 1 g $ h E =.> E 8 8 , u f u k d.e p u # < d h i u > u ",
"; A T 5 = 9 1.5.; h r $ u { g.- 4 5.k.9 t L 2 ; 1 g u - $ > f ; O -.> , E 2 g - 4 u p # ; =.4 ] M.8 ",
"8 f 4 + 4 h h ; 1 2 1 1 z f 9 4.9.R i : i ,.h 8 ; - a > u g @.d.u p : h P i P + = g ; 2 e i.R A 3.2 ",
"9 = [ [ 4 ,.y >.; - 2 # 8 = 3 ) 5 5.* u * h i.8 h.> 1.h > > - t t c r h 4.i P i.y.8 g u ; 8 V T 9 ; ",
"y l.f f 2 e 5.y L R 8 2 # t.i ] A 9 ; , O , f = > a.1.k.A 8 t 4 f > h - f h u i 3.h n : + *.9.T 9 < ",
"@.u f f - 1 U 9 Z *.+ g @ x 2 8 D P ; f q < j 2 ; a 4 4 ] i 5.{ 8 + u 2 , > ; 4 3 h : @ a ) 3 X.9 , ",
"t 7.E 4 1 # u y ; R - h u 8 - - 3.a j , , 2 r - : - ; = ; g u 4 u 2 >., - > g y 9.Z - 1.p t 8 f  .9 ",
"> t > h h # *.a h h ;.: f j $ v f 8 [ 2 + g : v =.:  .w 8 * =.7.1 d f 8 - > ; R 9.y a c 6.c - ; i 9 ",
"h # - 2 e h 7.- e x r r - 2 d.e a ; > 8 d g y.P h > 9 U 9.9.w > 2 $ 2 p 6.b.- f m.0.t r $ r 8 t.h i ",
"p.t g - &.h *.*.h 1 $ d , g =.> J 4 4 g - t t a > : = / V / = 2 j < 8 a e t i h y a 1 u # d z - # f ",
"> y.r k q u k h j r - 4 ; - u = i ] ; t h > y j.f h 4 8 @.a ;.u , * 4 *.@.a a i - n.2 2 u d =.; 2 >.",
"t - # 1 1 - - ; 8 # h f z 8 [ 8 - ] g.5.> h *.i ] 4 f L a t a 4.- - i a t t 1.h - r # h 3.* > t > ; ",
";.- - $ : n > f - # 2 | d f f ,.8 8 i h * , f Z ; > i U - 2 i t p 6.e e 7.i 3 P - + 8 d 4 l.; h 4 ,.",
"R h $ s n > g p h y.: 1 f > E - p ; u P + g k.J 2 - ] 3 8 < >.- h > e p V i 4 ; - z d , ; g.2 2 9 4.",
"9 w 0 1 2 ; v O 9 _ 2 u f t > t 4 i  .< u x i g.8 * - i > ' h h i * d > p 8 u h f.a - l 4.8 2 2 M M ",
"9 f q @ g # g x % * t.u > i ;.h ' o.6 f e > u i f , i h 4 8 h 2 t., 1 u 8 8 e > a 5.u # > > % j & 9 ",
"y y.1 $ ; 2 d r @ g f P u p > u ; f ; d p $ e u o.P ; Z > >.w , t.$ z + U 3.u u 5 L 8 f 1 @ ; d.4 >.",
"4 E $ g t.u $ s v - P t e > ;.> ; ' = q p u > g 4 i 7.=.=.i + 0 # - f i a - h > ,.9.= w | % u ;.; t ",
"i y a =.3 6 1 $ f ,.b.$ @ g r p u < d * x p o.4 p =.r r d ; 8 ' f j V i 4 u - - a i - f 6 8 8 y Z a ",
"j.t =.1.A 3 < $ U ~ b.: v # d : >.i j * z * P f p : @ 1 $ 2 2 8 f > / 5.5.J - ] ,.5 q j 8 9 8 0.Z 1.",
"] i ] = T T * h.i i h * h f ; ; 4 4 3 ] 8 : : # $ s $ k 2 j j 2 8 h a L { 9 _ 9 T i ; 1 p p 7.a ; y ",
"i - ] ; f.y f { u u u u 5 T [ u f o.9 ,.- r d n r k @ $ $ - 2 ; 1 r t i A F 9 = { f 1 r r @ C %.4 ] ",
"8 f ' P i 6 8 , g - =.L z.9./ M.d q - 8 g r r 2 r d s < - | 2 * 8 , 8 i a 1.f < , : # 1 2 - - u f.P ",
"i i i i 4 8 f ; # x -.4 i V 5 ,.+ * d 1 : - 1 h k p + d.# [ d k 2 + E 4 - g # - , e 1 u z f % ; ] 5 ",
"9 ,.D T %.; ,.,.; j - # d.= 8 ; ; e u z = 6 + f f 4 ; 3.4 4.$ # 3.t f i > : # * &.# - t j = 3 M i A ",
"4 8 f J M.5 4 / ; : r d - u j # v > 2 2 r.w 9 M i a ; Z L h < - 4.] U ; m.u >.> f 8 p B.G ~ ` f.U i ",
"> 2 u k 3.; i 2 $ - * d - m , 2 8 , - : ] D ` 3 5 y j.1.t @.@ n ; - ] R *.; ' = | u g 4 ~ O.3 F i y ",
"L t : - - 8 ' 2 r n | f f <   d , l 1 2 8 9 M 3 J @.t a b.d # j - 8 u h.h 4.6 ' 4 u > 3 9.) 9 8 > =.",
"a 7.e e g f f - g $ t.= . j = f 2 O f i u ; c.; ; *.t ; 8 u $ - $ z k i 8 ] f > o.R 8 t P a h =.: j ",
"%.t c : : g = >.n @ 1 h w 6 j  .- d i.u z 1 ; 4 i 1.R h O < # x u r - 2 4 h 8 = V 9 h > f = ; 1 1 - "
};
