/* XPM */
static char *frame_6_delay_0_12s1670859743[] = {
/* columns rows colors chars-per-pixel */
"50 50 25 1 ",
"  c None",
". c #180F1F",
"X c #0C3F0F",
"o c #190F20",
"O c #6D1822",
"+ c #0C400F",
"@ c #0F5314",
"# c #116115",
"$ c #116016",
"% c #116116",
"& c #C2360F",
"* c #D54E5C",
"= c #D54F5C",
"- c #D54F5D",
"; c #67940F",
": c #63AD45",
"> c #7EC162",
", c #D48919",
"< c #D48A19",
"1 c #CDB7B9",
"2 c #CEB7B9",
"3 c #C9B7BC",
"4 c #C8B8BC",
"5 c #C9B8BD",
"6 c #EFECEC",
/* pixels */
"                                                  ",
"                    *OOOOO                        ",
"                   -&OOOOOOO                      ",
"                  -&OOOOooOO                      ",
"        ,        --OOOOOOooOO                     ",
"                -*OOOOOOOOooOO                    ",
"       &        -O&OOOooOOooOO                    ",
"                -OO&&OooOooo O                    ",
"       ,        -OoOOoooOOoo O                    ",
"       &&       -OooooooOOOooO                    ",
"                *OOOoO@oOOOoo                     ",
"                &o55O5>ooOOOoo                    ",
"                &oooooooooOOoo                    ",
"                &oooooooooOOoo                    ",
"      &,,      *&ooooooooOOoooo                   ",
"       ,&&     *OOooooooOOOoooo                   ",
"      &&,,    o&OOOooooOOOooOOoo                  ",
"      &,6,  *&Oo&&OoooOOOoooOOOOO                 ",
"      &21,  &OOOOOOoOoOOOooOOOOOO                 ",
"      &-&& oo&OOOoOoOOOOooOOOOOOOO                ",
"          Oooo&OOOooOOoooOOOoOOOOO                ",
"      116>-OOOOOOOOoOOoOOOOOoOOOOO                ",
"      1566-&OOoOOOOOOOoOOOOOoooOoOO               ",
"       556oOOOoOOOOOOOOOOOOooOoOOOO               ",
"         OooOOoOoOOOOOOOOoooOOOoOOO               ",
"         OooOOoOooOOOOOOoOOOOOOoOOO               ",
"         OooOOOOoooOOOOOOOOOOOOOOOo               ",
"         OooOoOOoo.OOO5665oOOOOOOoo               ",
"         OoOOoOOoooOO;666;;OOOOOooo               ",
"         OoOOoOOOoOOO+551@;oOOOoooo               ",
"         OoOooOOOOOoooOoo%;OOOOooo                ",
"          oOoooOOOoOOOoo%;oOOOoooo                ",
"          OooooooooOoOOX%ooOOooooo                ",
"          OoOooooOOOoOO@;.oOoooooo                ",
"          O OooOOOOOoO@%%:oOooooo                 ",
"          O OOooOOOoOO;;%:ooooooo                 ",
"          O OOoooOOoOO;;%:ooooooo                 ",
"          O OO ooOooOO%;%:ooooooo                 ",
"          O    ooOoOoO+%:%.oooooo                 ",
"          O     oOoooOoo@..oo ooo                 ",
"                oooOoOooooooo  oo                 ",
"                ooOOoOooooooo  oo                 ",
"                 oOOoOOoo oo   oo                 ",
"                 ooOoOOoo      o                  ",
"                  oOoOOOo     oo                  ",
"                  ooooOOo     o                   ",
"                   oo OO                          ",
"                      OO                          ",
"                                                  ",
"                                                  "
};
