/* XPM */
static char *frame_2_delay_0_12s1670859742[] = {
/* columns rows colors chars-per-pixel */
"50 50 23 1 ",
"  c None",
". c #180F1F",
"X c #190F20",
"o c #6D1822",
"O c #6D1823",
"+ c #0C400F",
"@ c #0F5314",
"# c #116115",
"$ c #116016",
"% c #116116",
"& c #C2360F",
"* c #D64F5C",
"= c #67940F",
"- c #63AD45",
"; c #7EC162",
": c #D48919",
"> c #D48A19",
", c #CDB7B9",
"< c #CEB7B9",
"1 c #C9B7BC",
"2 c #C8B8BC",
"3 c #C9B8BD",
"4 c #EFECEC",
/* pixels */
"                                                  ",
"                    OOOOOO                        ",
"                   OOOOOOOOO                      ",
"                  OOOOOOXXOO                      ",
"                 OOOOOOOOX.OO                     ",
"                OOOOOOOOOOXXOO                    ",
"                OOOOOOO.OOXXOO                    ",
"                OO.OOO..OXXX O                    ",
"                OOXXXXXXOO.. O                    ",
"       &&       OOXXXXXXOOO.XO                    ",
"       ::       &XOOXO@XOOO.X                     ",
"                OX33O<;X.OOOXX                    ",
"        &       OXXXXXXX..OOXX                    ",
"                OXXXXXXXX.OOXX                    ",
"       ::      &OXXXXXXXXoOOXXX                   ",
"        &      &OOXXXXXXOoOXXXX                   ",
"       &&     XOOOOXXXXoOOXXoOXX                  ",
"      :><   *&OXOOOXXXoOOXXXOOOOO                 ",
"      ><<   OOOOXoOXoXOOOXXOOOOOO                 ",
"           XXOOOoXOXOooOXXOooOOOOO                ",
"          OXXXOOOOXXOooXXOOoXOOOOO                ",
"      ,34=&OOOOOOOOXOooOOOOoXoooOO                ",
"      ,344OOOOXOOOOoOooOOOOoXXXoOOO               ",
"       334XXOOXOoOOOOOOOOOoXXoXoOOO               ",
"         OXXOOXOXOOOOOOOOXXXOOOXOOO               ",
"         OXXOOXOXOOOOOOOXOOOOOOXOOO               ",
"         OXXOOOOXOXOOOOOOOOOOOOOOOX               ",
"         OXXOXOOXOXOOO11,1XOOOOOOXX               ",
"         OXOOXOOXoXOo=444==oOOOOXXX               ",
"         OXOoXOOXooOo+11<@=oOOOXXXX               ",
"         OXOoXoOOOXXXXOXX#=oOOOXXX                ",
"          XooXXOOOXOoOXX#=XoOoXXXX                ",
"          OXOXXOXoXOXOo+#XXOOXXXXX                ",
"          OXOXXXXOoOXOO@=XXOXXXXXX                ",
"          O OXXOOOOOXo@##-XoXXXXX                 ",
"          O OOXXOOOXOo==#-XXXXXXX                 ",
"          O O XXXOoXOo==#-XXXXXXX                 ",
"         OO O  XXOXXoO#=#-XXXXXXX                 ",
"         O     XXOXoXo+#-#XXXXXXX                 ",
"                XOXXXoXX@XXXX XXX                 ",
"                XOXOXOoXXXXXX  XX                 ",
"                XOOOXOoXXXXXX  XX                 ",
"                 XOOXooXX XX   XX                 ",
"                 XXOXOOXX      X                  ",
"                  XOXOOOX     XX                  ",
"                  XXXXOOX     X                   ",
"                   XX OO                          ",
"                      OO                          ",
"                                                  ",
"                                                  "
};
