/* XPM */
static char *frame_3_delay_0_12s1670859742[] = {
/* columns rows colors chars-per-pixel */
"50 50 25 1 ",
"  c None",
". c #0C3F0F",
"X c #190F20",
"o c #6D1822",
"O c #6D1823",
"+ c #0C400F",
"@ c #0F5314",
"# c #116115",
"$ c #116016",
"% c #116116",
"& c #C2360F",
"* c #D54E5C",
"= c #D54F5C",
"- c #D54F5D",
"; c #67940F",
": c #63AD45",
"> c #7EC162",
", c #D48919",
"< c #D48A19",
"1 c #CDB7B9",
"2 c #CEB7B9",
"3 c #C9B7BC",
"4 c #C8B8BC",
"5 c #C9B8BD",
"6 c #EFECEC",
/* pixels */
"                                                  ",
"                    OOOOOO                        ",
"                   OOOOOOOOO                      ",
"                  -OOOOOXXOO                      ",
"                 -&OOOOOOXXOO                     ",
"                -&OOOOOOOOXXOO                    ",
"                -OOOOOOXOOXXOO                    ",
"                -OXOOOXXOXXX O                    ",
"      &         =OXXXXXXOOXX O                    ",
"                -OXXXXXXOOoXXO                    ",
"      ,         =OOOXO@XOOOXX                     ",
"                &X44O4>XXOOoXX                    ",
"       &        &XXXXXXXXXOOXX                    ",
"       ,,       &XXXXXXXXXOOXX                    ",
"      &&       *&XXXXXXXXOOXXXX                   ",
"      ,,&      *OOXXXXXXOOOXOOXX                  ",
"      &,,&    X&OOOXXXXoOOXXoOOO                  ",
"      &,,&  *=OXOOOXXXoOOXXoOOOOO                 ",
"      &26-  &&OOXoOXoXOOOXXooOOOOO                ",
"      &--- XXOOOoXoXOooOXXOoXOOOOO                ",
"          OXXXOOOOXXOooXXOOoXoOOOO                ",
"      256>&OOOOOOOOXOooOOOOOXXXXOOO               ",
"      2566OOOOXOOOOoOooOOOOXXoXoOOO               ",
"       556XXOOXOoOOOOOOOOXXXOOoXOOO               ",
"         OXXOOXOXOOOOOOOXOOOOOOXOOO               ",
"         OXXOOOOOOXOOOOOOOOOOOOOOOX               ",
"         OXXOOOOXOXOOO5544XOOOOOOXX               ",
"         OXXOOOOXOXOO;666:;OOOOOXXX               ",
"         OXOOXOOXoXOoo354@;oOOOXXXX               ",
"         OXOoXOOOOXXX.oOo@;oOOOXXX                ",
"         OXOoXXOOOXOooXX+;XoOOXXXX                ",
"          XooXXoXoXOXoo.;XXooXXXXX                ",
"          OXOXXXXooOXOO@;XXOXXXXXX                ",
"          OXOXXOoOOOXo@#;;XoXXXXX                 ",
"          O OXXXOOOXOo;;#:XXXXXXX                 ",
"          O OXXXXOOXOo;;#:XXXXXXX                 ",
"          O OO XXOXXoo;;#:XXXXXXX                 ",
"          O O  XXOXXXO@#;;XXXXXXX                 ",
"          O     XOXXXoX+#XXXX XXX                 ",
"                XoXoXooXXXXXX  XX                 ",
"                XOXOXOoXXXXXX  XX                 ",
"                 XOOXOOXX XX   XX                 ",
"                 XXOXOOXX      X                  ",
"                  XOXOOOX     XX                  ",
"                  XXXOOOX     X                   ",
"                   XX OO                          ",
"                       O                          ",
"                      O                           ",
"                                                  ",
"                                                  "
};
