/* XPM */
static char *frame_1_delay_0_12s1670859742[] = {
/* columns rows colors chars-per-pixel */
"50 50 23 1 ",
"  c None",
". c #180F1F",
"X c #0C3F0F",
"o c #190F20",
"O c #6D1822",
"+ c #6D1823",
"@ c #0C400F",
"# c #0F5314",
"$ c #116115",
"% c #116016",
"& c #116116",
"* c #C2360F",
"= c #D54E5C",
"- c #67940F",
"; c #63AD45",
": c #7EC162",
"> c #D48919",
", c #CDB7B9",
"< c #CEB7B9",
"1 c #C9B7BC",
"2 c #C8B8BC",
"3 c #C9B8BD",
"4 c #EFECEC",
/* pixels */
"                                                  ",
"                    ++++++                        ",
"                   +++++++++                      ",
"                  ++++++oo++                      ",
"                 ++++++++o.++                     ",
"                ++++++++++oo++                    ",
"                +++++++.++oo++                    ",
"                ++.+++..+ooo +                    ",
"                ++oooooo++.. +                    ",
"                ++oooooo+++.o+                    ",
"                +o++o+#o+++.o                     ",
"                +o33+<:o.+++oo                    ",
"                +ooooooo..++oo                    ",
"                +oooooooo.++oo                    ",
"                +ooooooooO++ooo                   ",
"               +++oooooo+O+oooo                   ",
"       *      o++++ooooO++ooO+oo                  ",
"       *     o+o+++oooO++ooo+++++                 ",
"       >>   o+++oO+oOo+++oo++++++                 ",
"       44  oo+++Oo+o+OO+oo+OO+++++                ",
"          =*oo++++oo+OOoo++Oo+++++                ",
"       22 *+++o++++oOOO++++OoOOO++                ",
"      <24<++++o+++++OOO++++OoooOO++               ",
"      ,244++++o+++++++++++OooOoO+++               ",
"       324oo++o+o++++++++ooo+++o+++               ",
"         +oo++++o+++++++o++++++o+++               ",
"         +oo++++o+o+++++++++++++OOo               ",
"         +oo+o++o+o+++244,o+++++Ooo               ",
"         +oo+o++o+o+O-444--O++++ooo               ",
"         +o++o++o+++O@,2<#-O+++oooo               ",
"         +o+OoO+++oooo+oo$-O+++ooo                ",
"         +o+Ooo+++o+O+oo$-oO+Ooooo                ",
"          +++oo+oOo+o+OX$..++.oooo                ",
"          +o+oooo+O+o++#-..+oooooo                ",
"          +o+oo+++++oO#$&;.+ooooo                 ",
"          + ++oo+++o+O--&;o.ooooo                 ",
"          + ++ooo+Oo+O--&;ooooooo                 ",
"        + +++  oo+ooO+$-&;ooooooo                 ",
"         ++    oo+oOoO@$;&.oooooo                 ",
"                o+oooOoo#..oo ooo                 ",
"                o+o+o+Ooooooo  oo                 ",
"                o+++o+Ooooooo  oo                 ",
"                 o++oOOoo oo   oo                 ",
"                 oo+o++oo      o                  ",
"                  o+o+++o     oo                  ",
"                  oooo++o     o                   ",
"                   oo ++                          ",
"                      ++                          ",
"                                                  ",
"                                                  "
};
