/* XPM */
static char *frame_5_delay_0_12s1670859742[] = {
/* columns rows colors chars-per-pixel */
"50 50 25 1 ",
"  c None",
". c #180F1F",
"X c #0C3F0F",
"o c #190F20",
"O c #6D1822",
"+ c #6D1823",
"@ c #0C400F",
"# c #0F5314",
"$ c #116115",
"% c #116016",
"& c #116116",
"* c #C2360F",
"= c #D54E5C",
"- c #D54F5C",
"; c #D64F5D",
": c #67940F",
"> c #63AD45",
", c #7EC162",
"< c #D48919",
"1 c #D48A19",
"2 c #CEB7B9",
"3 c #C9B7BC",
"4 c #C8B8BC",
"5 c #C9B8BD",
"6 c #EFECEC",
/* pixels */
"                                                  ",
"                    ;*++++                        ",
"                   ;;+++++++                      ",
"                  ;;+++Ooo++                      ",
"                 ;;;+++++o.++                     ",
"                ;;;O+++O++oo++                    ",
"                ;O**+++o++oo++                    ",
"      *<        ;O+;*+.o+ooo +                    ",
"                ;+o++ooo++.. +                    ",
"                ;+oooooo+++.o+                    ",
"        *       ;+++o+#o+++.o                     ",
"       <        *o52+2,o.+++oo                    ",
"                *ooooooo..++oo                    ",
"       *        *ooooooo..++oo                    ",
"      **       ;;+ooooooo+++ooo                   ",
"       ***     ;*+oooooo+++oooo                   ",
"      21<*    o**++o..o+++oo++.o                  ",
"      12<*  ;-*o**+o..+++.o.+++++                 ",
"      *22*  **+++++oO.+++oo++++++                 ",
"      *;** oo*+++o+o+O++.o++++++++                ",
"          ++oo*+++oo++O.o+OO.+++++                ",
"      256:;*+++++++o+++++++Oo+++++                ",
"      2566;;*+o+++++++++++OO...++++               ",
"       556o+++o+++++++++++Oo.+.++++               ",
"         +oo++o+o++++++++ooo+++o+++               ",
"         +oo++o+o+++++++o++++++o+++               ",
"         +oo++++o+o+++++++++++++++o               ",
"         +oo+o++o+o+++5322o++++++oo               ",
"         +o++o++oOo++:666::+++++ooo               ",
"         +o+Oo++oOO++@332#:++++oooo               ",
"         +o+OoO++OOooo+oo$:++++ooo                ",
"          oOOoo+++o+++oo$:o+++oooo                ",
"          +o+oo+oOo+o+O@$oo++ooooo                ",
"          +o+oooo+O+o++#:oo+oooooo                ",
"          + +oo+++++oO#$$>oOooooo                 ",
"          + ++oo+++o+O::$>ooooooo                 ",
"          + ++ooo+Oo+O::$>ooooooo                 ",
"          + ++ oo+ooO+$:$>ooooooo                 ",
"          +    oo+oOoO@$>$ooooooo                 ",
"          +     o+oooOoo#oooo ooo                 ",
"                o+o+o+Ooooooo  oo                 ",
"                o+++o+Ooooooo  oo                 ",
"                 o++oOOoo oo   oo                 ",
"                 oo+o++oo      o                  ",
"                  o+o+++o     oo                  ",
"                  oooo++o     o                   ",
"                   oo ++                          ",
"                      ++                          ",
"                                                  ",
"                                                  "
};
