/* XPM */
static char *frame_4_delay_0_12s1670859742[] = {
/* columns rows colors chars-per-pixel */
"50 50 24 1 ",
"  c None",
". c #180F1F",
"X c #0C3F0F",
"o c #6D1822",
"O c #6D1823",
"+ c #0C400F",
"@ c #0F5314",
"# c #116115",
"$ c #116016",
"% c #116116",
"& c #C2360F",
"* c #D54E5C",
"= c #D54F5C",
"- c #D64F5D",
"; c #67940F",
": c #63AD45",
"> c #7EC162",
", c #D48919",
"< c #D48A19",
"1 c #CDB7B9",
"2 c #CEB7B9",
"3 c #C8B8BC",
"4 c #C9B8BD",
"5 c #EFECEC",
/* pixels */
"                                                  ",
"                                                  ",
"                    *&OOOOO                       ",
"      &            *=OOOOOOO                      ",
"                  -OOOO....OO                     ",
"      <          -&OOOOOO...OO                    ",
"                -&*OOOOOOO..OO                    ",
"                -O&OOOO.OO..OO                    ",
"                =OO&OO..O... O                    ",
"                -O.O....OO...O                    ",
"        &       -O......OOo..O                    ",
"        <       =O;>+>O.oOo..                     ",
"                &.>3@3;..OOO..                    ",
"       &        &.........OO..                    ",
"      &&        &.........OO..                    ",
"       &&&     *&O.......OO....                   ",
"      &<<&    .-Oo......OOo....                   ",
"      <22*   -.&OOo....oOO..oOOO                  ",
"      &22&  --&.OOO...oOO...OOOOO                 ",
"      &-&& .&-Oo.oO.o.OOO..OOOOOOO                ",
"          ...&OOo.o.OooO..OoOOOOOO                ",
"       54OOO..oOOOo.Oooo.OOo.oOOOO                ",
"      4554*OOooOOOO.OooOOOOo..ooOO                ",
"      2455*OOO.OOOOoOooOOOOo...oOOO               ",
"       445..OO.o.OOOOOooOOo.oo..OOO               ",
"         O..OO.o.OOOOOooo..oOOo.OOO               ",
"         O..OOOO.o.oOOoo.OOOOOOoOOO               ",
"         O..OoOo.o.oOOo;;;ooOOOOOO.               ",
"         O..O.oo.o.oO;3553.oOOOOO..               ",
"         O.OO.oo.ooOO;555#;oOOOo...               ",
"         O.Oo.oOOO...X;33@;OOOo...                ",
"         O.Oo..OOo.oO.O..##oOOo...                ",
"          OOO..o.o.o.o..##.OOO....                ",
"          O.O....ooO.OoX#..OO.....                ",
"          O.O..oOOOO.Oo@:..O......                ",
"          O O...OOO.Oo###:.......                 ",
"          O OO...Oo.Oo;;#:.......                 ",
"          O OO ..O..oO;;#:.......                 ",
"          O OO ..O.o.o###:.......                 ",
"          O     .O...oX#:@... ...                 ",
"          O     .O.O.Oo......  ..                 ",
"                .OOO.oo......  ..                 ",
"                 .OO.oo......  ..                 ",
"                 ..O.oo..      .                  ",
"                  .O.OO..      .                  ",
"                  ...OOO.     ..                  ",
"                   ...OO.     .                   ",
"                      OO                          ",
"                      OO                          ",
"                                                  "
};
