/* XPM */
static char *frame_0_delay_0_12s1670859742[] = {
/* columns rows colors chars-per-pixel */
"50 50 21 1 ",
"  c None",
". c #0C3F0F",
"X c #190F20",
"o c #6D1822",
"O c #6D1823",
"+ c #0C400F",
"@ c #0F5314",
"# c #116115",
"$ c #116016",
"% c #116116",
"& c #D54E5C",
"* c #67940F",
"= c #63AD45",
"- c #7EC162",
"; c #CDB7B9",
": c #CEB7B9",
"> c #C9B7BC",
", c #C8B8BC",
"< c #C9B8BD",
"1 c #EFECEC",
"2 c #F6F5F6",
/* pixels */
"                                                  ",
"                    OOOOOO                        ",
"                   OOOOOOOOO                      ",
"                  OOOOOOXXOO                      ",
"                 OOOOOOOOXXOO                     ",
"                OOOOOOOOOOXXOO                    ",
"                OOOOOOOXOOXXOO                    ",
"                OOXOOOXXOXXX O                    ",
"                OOXXXXXXOOXX O                    ",
"                OOXXXXXXOOoXXO                    ",
"                OXOOXO@XOOOXX                     ",
"                OX,,O,-XXOOoXX                    ",
"                oXXXXXXXXXOOXX                    ",
"                oXXXXXXXXXOOXX                    ",
"               OOXXXXXXXXOOOXXX                   ",
"               OOoXXXXXXOOOXXXX                   ",
"              XOOOoXXXXoOOXXoOXX                  ",
"            OOoXoOOXXXoOOXXXOOOOO                 ",
"       2    OOOOXoOXoXOOOXXOOOOOO                 ",
"           XXOOOoXoXOooOXXOooOOOOO                ",
"          OXXXOOOOXXXooXXOOoXOOOOO                ",
"      :,1*&OOOOOOOOOOXooOOOoXoooOO                ",
"      :,11OOOOXOOOOOOoOoOOOoXXXoOOO               ",
"       ,,1XXOOXOoOOOOOOOOOoXXoXoOOO               ",
"         OXXOOXOXOOOOOOOOXXXOOoXOOO               ",
"         OXXOOXOXOOOOOOOXOOOOOOXOOO               ",
"         OXXOOOOXOXOOOOOOOOOOOOOOOX               ",
"         OXXOXOOXOXOOO,11,XOOOOOOXX               ",
"         OXXOXOOXOXOo*111**oOOOoXXX               ",
"         OXXoXOOOOoOo+;,:@*oOOOXXXX               ",
"         OXXoXooXooXXXOXX#*oOOoXXX                ",
"          XXoXXXoooXXOXX#*XoOoXXXX                ",
"          OXOXXOOOOXXOo.#XXoOXXXXX                ",
"          OXOXXOOOooXOo@*XXOXXXXXX                ",
"          O OXXXoOXoXo@$#=XoXXXXX                 ",
"          OOOOXXooXoXo**#=XXXXXXX                 ",
"         OO   XXooXXXo**#=XXXXXXX                 ",
"               XooXXXo#*#=XXXXXXX                 ",
"               XooXXXo+#=$XXXXXXX                 ",
"               XXooXXoXX@XXXX XXX                 ",
"                XOOXXOoXXXXXX  XX                 ",
"                XXOXXOOXXXXXX  XX                 ",
"                 XOXXOOXX XX   XX                 ",
"                 XXXXOOXX      X                  ",
"                  XXXOOOX     XX                  ",
"                    XXOOX     X                   ",
"                      OO                          ",
"                      OO                          ",
"                                                  ",
"                                                  "
};
