/* XPM */
static char *frame_4_delay_0_1s1670852230[] = {
/* columns rows colors chars-per-pixel */
"50 50 8 1 ",
"  c black",
". c #FF9800",
"X c #FFC107",
"o c #FFEB3B",
"O c #FF5722",
"+ c None",
"@ c black",
"# c black",
/* pixels */
"++++++++++++++++++++++++++++++++++++++++++++++++++",
"++++++++++++++++++++++++++++++++++++++++++++++++++",
"++++++++++++++++++++++++++++++++++++++++++++++++++",
"++++++++++++++++++++++++++++++++++++++++++++++++++",
"++++++++++++++++++++          ++++++++++++++++++++",
"++++++++++++++++++++          ++++++++++++++++++++",
"+++++++++++++++++   ..........   +++++++++++++++++",
"+++++++++++++++++   XXXXXXXXXX   +++++++++++++++++",
"+++++++++++++++++   XXXXXXXXXX   +++++++++++++++++",
"+++++++++++++++++   XXX..XXXXX   +++++++++++++++++",
"+++++++++++++++++   XXX..XXXXX   +++++++++++++++++",
"+++++++++++++++   .....XXooXXX...  +++++++++++++++",
"+++++++++++++++   XX...XXoooXXXX.  +++++++++++++++",
"+++++++++++++++   XX...XXoooXXXX.  +++++++++++++++",
"+++++++++++++++   XX..XoooooXXXX.  +++++++++++++++",
"+++++++++++++++   XX..XoooooXXXX.  +++++++++++++++",
"+++++++++++++++   XX..XXXoooXXXX.  +++++++++++++++",
"+++++++++++++++   XX...XXoooXXXX.  +++++++++++++++",
"+++++++++++++++   XX...XXoooXXXX.  +++++++++++++++",
"+++++++++++++++   XX..XoooooXXXX.  +++++++++++++++",
"+++++++++++++++   XX..XoooooXXXX.  +++++++++++++++",
"+++++++++++++++   XX..XXXooX.....  +++++++++++++++",
"+++++++++++++++   XX...XXooX....O  +++++++++++++++",
"+++++++++++++++   XX...XXooX....O  +++++++++++++++",
"+++++++++++++++   XX...XXooX....O  +++++++++++++++",
"+++++++++++++++   XX...XXooX....O  +++++++++++++++",
"+++++++++++++++   XX.....ooX....O  +++++++++++++++",
"+++++++++++++++   XX.....ooX....O  +++++++++++++++",
"+++++++++++++++   XX.....ooX....O  +++++++++++++++",
"+++++++++++++++   XX.....ooX....O  +++++++++++++++",
"+++++++++++++++   XX.....ooX....O  +++++++++++++++",
"+++++++++++++++   XX.....ooX....O  +++++++++++++++",
"+++++++++++++++   XX.....ooX....O  +++++++++++++++",
"+++++++++++++++   XX.....ooX....O  +++++++++++++++",
"+++++++++++++++   XXXXXXXooX....O  +++++++++++++++",
"+++++++++++++++   XXXXXXXooX....O  +++++++++++++++",
"++++++++++++++++    XXXoo...OO     +++++++++++++++",
"+++++++++++++++++   XXXooOOOOO   +++++++++++++++++",
"+++++++++++++++++   XXXooOOOOO   +++++++++++++++++",
"+++++++++++++++++   XXXXXOOOOO   +++++++++++++++++",
"+++++++++++++++++   XXXXXOOOOO   +++++++++++++++++",
"++++++++++++++++++              ++++++++++++++++++",
"++++++++++++++++++++          ++++++++++++++++++++",
"++++++++++++++++++++          ++++++++++++++++++++",
"++++++++++++++++++++++++++++++++++++++++++++++++++",
"++++++++++++++++++++++++++++++++++++++++++++++++++",
"++++++++++++++++++++++++++++++++++++++++++++++++++",
"++++++++++++++++++++++++++++++++++++++++++++++++++",
"++++++++++++++++++++++++++++++++++++++++++++++++++",
"++++++++++++++++++++++++++++++++++++++++++++++++++"
};
