/* XPM */
static char *frame_3_delay_0_1s1670852230[] = {
/* columns rows colors chars-per-pixel */
"50 50 8 1 ",
"  c black",
". c #FF9800",
"X c #FFC107",
"o c None",
"O c #FF5721",
"+ c black",
"@ c black",
"# c black",
/* pixels */
"oooooooooooooooooooooooooooooooooooooooooooooooooo",
"oooooooooooooooooooooooooooooooooooooooooooooooooo",
"oooooooooooooooooooooooooooooooooooooooooooooooooo",
"oooooooooooooooooooooooooooooooooooooooooooooooooo",
"oooooooooooooooooooo          oooooooooooooooooooo",
"oooooooooooooooooooo          oooooooooooooooooooo",
"oooooooooooooooooooo   ....   oooooooooooooooooooo",
"oooooooooooooooooooo   XXXX.  oooooooooooooooooooo",
"oooooooooooooooooooo   XXXX.  oooooooooooooooooooo",
"oooooooooooooooooooo   XXXX.  oooooooooooooooooooo",
"oooooooooooooooooooo   XXXX.  oooooooooooooooooooo",
"oooooooooooooooooooo   XXXX.  oooooooooooooooooooo",
"oooooooooooooooooooo   XXXX.  oooooooooooooooooooo",
"oooooooooooooooooooo   XXXX.  oooooooooooooooooooo",
"oooooooooooooooooooo   XXXX.  oooooooooooooooooooo",
"oooooooooooooooooooo   XXXX.  oooooooooooooooooooo",
"oooooooooooooooooooo   XXXX.  oooooooooooooooooooo",
"oooooooooooooooooooo   XXXX.  oooooooooooooooooooo",
"oooooooooooooooooooo   XXXX.  oooooooooooooooooooo",
"oooooooooooooooooooo   XXXX.  oooooooooooooooooooo",
"oooooooooooooooooooo   XXXX.  oooooooooooooooooooo",
"oooooooooooooooooooo   .....  oooooooooooooooooooo",
"oooooooooooooooooooo   ....O  oooooooooooooooooooo",
"oooooooooooooooooooo   ....O  oooooooooooooooooooo",
"oooooooooooooooooooo   ....O  oooooooooooooooooooo",
"oooooooooooooooooooo   ....O  oooooooooooooooooooo",
"oooooooooooooooooooo   ....O  oooooooooooooooooooo",
"oooooooooooooooooooo   ....O  oooooooooooooooooooo",
"oooooooooooooooooooo   ....O  oooooooooooooooooooo",
"oooooooooooooooooooo   ....O  oooooooooooooooooooo",
"oooooooooooooooooooo   ....O  oooooooooooooooooooo",
"oooooooooooooooooooo   ....O  oooooooooooooooooooo",
"oooooooooooooooooooo   ....O  oooooooooooooooooooo",
"oooooooooooooooooooo   ....O  oooooooooooooooooooo",
"oooooooooooooooooooo   ....O  oooooooooooooooooooo",
"oooooooooooooooooooo   ....O  oooooooooooooooooooo",
"oooooooooooooooooooo   OOOOO  oooooooooooooooooooo",
"oooooooooooooooooooo   OOOOO  oooooooooooooooooooo",
"oooooooooooooooooooo   OOOOO  oooooooooooooooooooo",
"oooooooooooooooooooo   OOOOO  oooooooooooooooooooo",
"oooooooooooooooooooo   OOOOO  oooooooooooooooooooo",
"oooooooooooooooooooo          oooooooooooooooooooo",
"oooooooooooooooooooo          oooooooooooooooooooo",
"oooooooooooooooooooo          oooooooooooooooooooo",
"oooooooooooooooooooooooooooooooooooooooooooooooooo",
"oooooooooooooooooooooooooooooooooooooooooooooooooo",
"oooooooooooooooooooooooooooooooooooooooooooooooooo",
"oooooooooooooooooooooooooooooooooooooooooooooooooo",
"oooooooooooooooooooooooooooooooooooooooooooooooooo",
"oooooooooooooooooooooooooooooooooooooooooooooooooo"
};
