/* XPM */
static char *frame_0_delay_0_1s1670852230[] = {
/* columns rows colors chars-per-pixel */
"50 50 8 1 ",
"  c black",
". c #FF9800",
"X c #FFC107",
"o c #FFEB3B",
"O c None",
"+ c black",
"@ c black",
"# c black",
/* pixels */
"OOOOOOOOOOOOOOOOOOOOOOOOOOOOOOOOOOOOOOOOOOOOOOOOOO",
"OOOOOOOOOOOOOOOOOOOOOOOOOOOOOOOOOOOOOOOOOOOOOOOOOO",
"OOOOOOOOOOOOOOOOOOOOOOOOOOOOOOOOOOOOOOOOOOOOOOOOOO",
"OOOOOOOOOOOOOOOOOOOOOOOOOOOOOOOOOOOOOOOOOOOOOOOOOO",
"OOOOOOOOOOOOOOOOO                OOOOOOOOOOOOOOOOO",
"OOOOOOOOOOOOOOOOO                OOOOOOOOOOOOOOOOO",
"OOOOOOOOOOOO      ...............     OOOOOOOOOOOO",
"OOOOOOOOOOOO      XXXXXXXXXXXXXX.     OOOOOOOOOOOO",
"OOOOOOOOOOOO     .XXXXXXXXXXXXXX.     OOOOOOOOOOOO",
"OOOOOOOOOO   XXXXX...............XXXX.  OOOOOOOOOO",
"OOOOOOOOOO   XXXXX...............XXXX.  OOOOOOOOOO",
"OOOOOOO   ..XXX...XXXXXXXXXXXXXXX..XXX..   OOOOOOO",
"OOOOOOO   XXXXX...XXXXXXXXXXXXXXX..XXXXX   OOOOOOO",
"OOOOOOO   XXXXX..XXXXXXXXXXXXXXXX..XXXXX   OOOOOOO",
"OOOOOOO   XXX..XXXXXooooooooXXXXXXXoooXX   OOOOOOO",
"OOOOOOO   XXX..XXXXXooooooooXXXXXXXoooXX   OOOOOOO",
"OOOOO   .....XXXXXXXoooXXXXX..XXXXXXXXooX..  OOOOO",
"OOOOO   XX...XXXXXXXoooXXXXX..XXXXXXXXooXX.  OOOOO",
"OOOOO   XX...XXXXXXXoooXXXXX..XXXXXXXXooXX.  OOOOO",
"OOOOO   XX...XXooooooooXXXXXXXoooXXXXXooXX.  OOOOO",
"OOOOO   XX...XXooooooooXXXXXXXoooXXXXXooXX.  OOOOO",
"OOOOO   XX...XXoooXXXXXXXXXXXXXXX..XXXooXX.  OOOOO",
"OOOOO   XX...XXoooXXXXXXXXXXXXXXX..XXXooXX.  OOOOO",
"OOOOO   XX...XXoooXXXXXXXXXXXXXXX..XXXooXX.  OOOOO",
"OOOOO   XX...XXoooXXXXXXXXXXXXXXX..XXXooXX.  OOOOO",
"OOOOO   XX...XXoooXXXXXXXXXXXXXXX..XXXooXX.  OOOOO",
"OOOOO   XX...XXXXX..XXXXXXXX.......XXXooXX.  OOOOO",
"OOOOO   XX...XXXXX..XXXXXXXX.......XXXooXX.  OOOOO",
"OOOOO   XX...XXXXX..XXXXXXXX.......XXXooXX.  OOOOO",
"OOOOO   XX...XXXXXXXoooXXXXX..XXXXXXXXooXX.  OOOOO",
"OOOOO   XX...XXXXXXXoooXXXXX..XXXXXXXXooXX.  OOOOO",
"OOOOOO    XXX..XXXXXXXX.......XXXXXoooXX     OOOOO",
"OOOOOOO   XXX..XXXXXXXX.......XXXXXoooXX   OOOOOOO",
"OOOOOOO   XXX..XXXXXXXX.......XXXXXooXXX   OOOOOOO",
"OOOOOOO   XXXXXoooXXXXXXXXXXXXXXXooXXXXX   OOOOOOO",
"OOOOOOO   XXXXXoooXXXXXXXXXXXXXXXooXXXXX   OOOOOOO",
"OOOOOOOO    .XXXXXoooooooooooooooXXXX.    OOOOOOOO",
"OOOOOOOOOO   XXXXXoooooooooooooooXXXX.  OOOOOOOOOO",
"OOOOOOOOOO   ....XooooooooooooooX.....  OOOOOOOOOO",
"OOOOOOOOOOOO      XXXXXXXXXXXXXX.     OOOOOOOOOOOO",
"OOOOOOOOOOOO      XXXXXXXXXXXXXX.     OOOOOOOOOOOO",
"OOOOOOOOOOOOO                        OOOOOOOOOOOOO",
"OOOOOOOOOOOOOOOOO                OOOOOOOOOOOOOOOOO",
"OOOOOOOOOOOOOOOOO                OOOOOOOOOOOOOOOOO",
"OOOOOOOOOOOOOOOOOOOOOOOOOOOOOOOOOOOOOOOOOOOOOOOOOO",
"OOOOOOOOOOOOOOOOOOOOOOOOOOOOOOOOOOOOOOOOOOOOOOOOOO",
"OOOOOOOOOOOOOOOOOOOOOOOOOOOOOOOOOOOOOOOOOOOOOOOOOO",
"OOOOOOOOOOOOOOOOOOOOOOOOOOOOOOOOOOOOOOOOOOOOOOOOOO",
"OOOOOOOOOOOOOOOOOOOOOOOOOOOOOOOOOOOOOOOOOOOOOOOOOO",
"OOOOOOOOOOOOOOOOOOOOOOOOOOOOOOOOOOOOOOOOOOOOOOOOOO"
};
