/* XPM */
static char *frame_1_delay_0_1s1670852230[] = {
/* columns rows colors chars-per-pixel */
"50 50 8 1 ",
"  c black",
". c #FF9800",
"X c #FFC107",
"o c #FFEB3B",
"O c None",
"+ c #FF5721",
"@ c black",
"# c black",
/* pixels */
"OOOOOOOOOOOOOOOOOOOOOOOOOOOOOOOOOOOOOOOOOOOOOOOOOO",
"OOOOOOOOOOOOOOOOOOOOOOOOOOOOOOOOOOOOOOOOOOOOOOOOOO",
"OOOOOOOOOOOOOOOOOOOOOOOOOOOOOOOOOOOOOOOOOOOOOOOOOO",
"OOOOOOOOOOOOOOOOOOOOOOOOOOOOOOOOOOOOOOOOOOOOOOOOOO",
"OOOOOOOOOOOOOOOOO                OOOOOOOOOOOOOOOOO",
"OOOOOOOOOOOOOOOOO                OOOOOOOOOOOOOOOOO",
"OOOOOOOOOOOOOOO   ...............  OOOOOOOOOOOOOOO",
"OOOOOOOOOOOOOOO   XXXXXXXXXXXXXX.  OOOOOOOOOOOOOOO",
"OOOOOOOOOOOOOOO  .XXXXXXXXXXXXXX.   OOOOOOOOOOOOOO",
"OOOOOOOOOOOO   XXX............XXXXX   OOOOOOOOOOOO",
"OOOOOOOOOOOO   XXX............XXXXX   OOOOOOOOOOOO",
"OOOOOOOOOO   .....XXXXXXXXXXXXooXXX...  OOOOOOOOOO",
"OOOOOOOOOO   XX...XXXXXXXXXXXXoooXXXX.  OOOOOOOOOO",
"OOOOOOOOOO   XX...XXXXXXXXXXXXoooXXXX.  OOOOOOOOOO",
"OOOOOOOOOO   XX...XXoooooXXXXXoooXXXX.  OOOOOOOOOO",
"OOOOOOOOOO   XX...XXoooooXXXXXoooXXXX.  OOOOOOOOOO",
"OOOOOOO   .....XXXXXoooXX..XXXXXXooXXX..   OOOOOOO",
"OOOOOOO   XXX..XXXXXoooXX...XXXXXooXXXXX   OOOOOOO",
"OOOOOOO   XXX..XXXXXoooXX..XXXXXXooXXXXX   OOOOOOO",
"OOOOOOO   XXX..ooooooooXXXXXooXXXooXXXXX   OOOOOOO",
"OOOOOOO   XXX..ooooooooXXXXXooXXXooXXXXX   OOOOOOO",
"OOOOOOO   XXX..oooXXXXXXXXXXXX..XooXXX..   OOOOOOO",
"OOOOOOO   XXX..oooXXXXXXXXXXXX..XooXXX..   OOOOOOO",
"OOOOOOO   XXX..oooXXXXXXXXXXXX..XooXXX..   OOOOOOO",
"OOOOOOO   XXX..oooXXXXXXXXXXXX..XooXXX..   OOOOOOO",
"OOOOOOO   XXX..oooXXXXXXXXXXXX..XooXXX..   OOOOOOO",
"OOOOOOO   XXX..XXX..XXXXX.......XooXXX..   OOOOOOO",
"OOOOOOO   XXX..XXX..XXXXX.......XooXXX..   OOOOOOO",
"OOOOOOO   XXX..XXX..XXXXX.......XooXXX..   OOOOOOO",
"OOOOOOO   XXX..XXXXXoooXX...XXXXXooXXX..   OOOOOOO",
"OOOOOOO   XXX..XXXXXoooXX...XXXXXooXXX..   OOOOOOO",
"OOOOOOOO    .XX..XXXXXX.....XXoooXX...    OOOOOOOO",
"OOOOOOOOOO   XX...XXXXX.....XXoooXX..+  OOOOOOOOOO",
"OOOOOOOOOO   XX...XXXXX....XXXoooXX..+  OOOOOOOOOO",
"OOOOOOOOOO   XX...XXXXXXXXXXXXoooXX..+  OOOOOOOOOO",
"OOOOOOOOOO   XX...XXXXXXXXXXXXoooXX..+  OOOOOOOOOO",
"OOOOOOOOOOO    XXXooooooooooooXXX..     OOOOOOOOOO",
"OOOOOOOOOOOO   XXXooooooooooooXXX..   OOOOOOOOOOOO",
"OOOOOOOOOOOO   ..XooooooooooooXX...   OOOOOOOOOOOO",
"OOOOOOOOOOOOOOO   XXXXXXXXXXXX..+  OOOOOOOOOOOOOOO",
"OOOOOOOOOOOOOOO   XXXXXXXXXXXX..+  OOOOOOOOOOOOOOO",
"OOOOOOOOOOOOOOOO                   OOOOOOOOOOOOOOO",
"OOOOOOOOOOOOOOOOO                OOOOOOOOOOOOOOOOO",
"OOOOOOOOOOOOOOOOO                OOOOOOOOOOOOOOOOO",
"OOOOOOOOOOOOOOOOOOOOOOOOOOOOOOOOOOOOOOOOOOOOOOOOOO",
"OOOOOOOOOOOOOOOOOOOOOOOOOOOOOOOOOOOOOOOOOOOOOOOOOO",
"OOOOOOOOOOOOOOOOOOOOOOOOOOOOOOOOOOOOOOOOOOOOOOOOOO",
"OOOOOOOOOOOOOOOOOOOOOOOOOOOOOOOOOOOOOOOOOOOOOOOOOO",
"OOOOOOOOOOOOOOOOOOOOOOOOOOOOOOOOOOOOOOOOOOOOOOOOOO",
"OOOOOOOOOOOOOOOOOOOOOOOOOOOOOOOOOOOOOOOOOOOOOOOOOO"
};
