/* XPM */
static char *_c04812c84084b828224c8df65f5111c0COEq0MfdYCVZb24[] = {
/* columns rows colors chars-per-pixel */
"50 50 209 2 ",
"   c None",
".  c #3B2314",
"X  c #3B2315",
"o  c #3D2314",
"O  c #3C2315",
"+  c #3E2315",
"@  c #3C2316",
"#  c #3B2414",
"$  c #3B2514",
"%  c #3B2515",
"&  c #3C2414",
"*  c #3D2514",
"=  c #3C2415",
"-  c #3D2415",
";  c #3D2515",
":  c #3E2415",
">  c #412B1D",
",  c #422B1D",
"<  c #422C1E",
"1  c #442D1F",
"2  c #462F20",
"3  c #473021",
"4  c #463124",
"5  c #493224",
"6  c #4B3629",
"7  c #4D3629",
"8  c #4C372A",
"9  c #513D30",
"0  c #533C30",
"q  c #564235",
"w  c #584433",
"e  c #594535",
"r  c #5B4837",
"t  c #5B4539",
"y  c #5D473B",
"u  c #5C4838",
"i  c #604A3E",
"p  c #654F43",
"a  c #665443",
"s  c #665145",
"d  c #675247",
"f  c #695347",
"g  c #6C564B",
"h  c #6E584D",
"j  c #6E594D",
"k  c #715F4D",
"l  c #715C50",
"z  c #725D51",
"x  c #72614F",
"c  c #716256",
"v  c #756054",
"b  c #776755",
"n  c #7D665B",
"m  c #7B6C59",
"M  c #796A5F",
"N  c #796C5F",
"B  c #7F6F5C",
"V  c #807366",
"C  c #877065",
"Z  c #887166",
"A  c #897267",
"S  c #897A66",
"D  c #837569",
"F  c #877B6F",
"G  c #887B6F",
"H  c #917B70",
"J  c #927B71",
"K  c #937C71",
"L  c #937D71",
"P  c #947E73",
"I  c #957F74",
"U  c #94846E",
"Y  c #8F8377",
"T  c #958570",
"R  c #988277",
"E  c #998378",
"W  c #9A8479",
"Q  c #9B8579",
"!  c #9A847A",
"~  c #9B857A",
"^  c #9B867A",
"/  c #9C867B",
"(  c #9C877B",
")  c #9D887C",
"_  c #9E897C",
"`  c #9F8A7D",
"'  c #9F8B7E",
"]  c #A08C7F",
"[  c #A2937C",
"{  c #9F8B80",
"}  c #9B9084",
"|  c #A08C80",
" . c #A28E80",
".. c #A49182",
"X. c #A49085",
"o. c #A59287",
"O. c #A79584",
"+. c #A99785",
"@. c #AA9C83",
"#. c #AA9886",
"$. c #AB9987",
"%. c #A4998D",
"&. c #AC9A88",
"*. c #AD9C89",
"=. c #AE9D8A",
"-. c #AD9B8D",
";. c #AD9C90",
":. c #B09F93",
">. c #B1A18C",
",. c #B4A48E",
"<. c #B6A690",
"1. c #B0A094",
"2. c #B2A297",
"3. c #B9AB92",
"4. c #BBAD95",
"5. c #BBAE94",
"6. c #BCAE95",
"7. c #BCAF95",
"8. c #BCAE96",
"9. c #B7A898",
"0. c #BDB096",
"q. c #BEB198",
"w. c #BFB198",
"e. c #BFB298",
"r. c #BFB299",
"t. c #B8AFA2",
"y. c #BCADA2",
"u. c #BFB1A5",
"i. c #BFB5A9",
"p. c #C0B399",
"a. c #C0B39A",
"s. c #C1B49A",
"d. c #C2B59B",
"f. c #C2B59C",
"g. c #C2B69C",
"h. c #C2B69D",
"j. c #C3B69D",
"k. c #C3B79E",
"l. c #C4B79E",
"z. c #C4B79F",
"x. c #C1B4A0",
"c. c #C4B8A0",
"v. c #C5B9A0",
"b. c #C5B9A1",
"n. c #C5BAA1",
"m. c #C5B9A2",
"M. c #C6BAA2",
"N. c #C6BBA3",
"B. c #C7BBA3",
"V. c #C6BAA4",
"C. c #C7BBA4",
"Z. c #C4B8A7",
"A. c #C7BCA4",
"S. c #C7BCA5",
"D. c #C8BDA6",
"F. c #C8BDA7",
"G. c #C0B6AA",
"H. c #C2B9AD",
"J. c #C4B8AC",
"K. c #C8BCA8",
"L. c #C8BDA9",
"P. c #C9BEA8",
"I. c #C8BDB2",
"U. c #C9BEB2",
"Y. c #CABFB3",
"T. c #CCC1AC",
"R. c #CCC2AD",
"E. c #CDC2AE",
"W. c #CEC4B0",
"Q. c #CFC5B1",
"!. c #CBC0B4",
"~. c #CDC5B9",
"^. c #D0C6B2",
"/. c #D0C6B3",
"(. c #D1C7B4",
"). c #D1C8B5",
"_. c #D0C6BA",
"`. c #D4CBB9",
"'. c #D5CDBB",
"]. c #D3CABE",
"[. c #D3CBBF",
"{. c #D6CEBD",
"}. c #D5CCBE",
"|. c #D6CEBE",
" X c #D6CFBE",
".X c #D6CDC1",
"XX c #D7CEC2",
"oX c #D7CFC2",
"OX c #D7CFC4",
"+X c #D8D0C0",
"@X c #D9D1C1",
"#X c #D9D2C2",
"$X c #D8D1C5",
"%X c #DAD3C7",
"&X c #DBD3C7",
"*X c #DBD4C5",
"=X c #DAD4C7",
"-X c #DCD5C9",
";X c #DDD6C8",
":X c #DED7C9",
">X c #DED7CB",
",X c #DED8CA",
"<X c #DFD8CB",
"1X c #DED8CC",
"2X c #DFD8CC",
"3X c #E0DACE",
"4X c #E1DBCF",
"5X c #E1DCCF",
"6X c #E2DCD0",
/* pixels */
"                    - . @ @ @ @ @ @ @ @ @ @ @ @ @ @ @ @ @ @ @ @ @ @ @ @ @ @ @ .                     ",
"              # . . . . . . . . . . . . . - . . . . . . . . . . . . . . . . . . . . -               ",
"          . . . . Y .X:X:X%.6 . . . . > c } H.&X:X~.G q . . . . @ . . @ . @ M J.T @ . . -           ",
"        . . < $X6X6X3X6X6X6X6X6X6X6X6X6X6X6X6X6X3X6X6X6X6X6X6X6X6X5X5X6X5X5X5X5X6X6XXX> . .         ",
"      . . V 6X6X6X6X6X6X6X6X6X6X6X6X6X6X6X6X6X6X6X6X6X6X6X6X6X6X6X6X6X6X6X6X6X6X6X6X6X6XN . .       ",
"    # . G 6X6X6X6X6X6X6X6X6X6X6X6X6X6X6X6X6X6X6X6X6X6X5X6X6X6X6X6X6X6X6X6X6X6X6X6X6X6X6X6XD . @     ",
"    . 6 6X6X6X6X6X6X6X6X6X6X6X6X6X5X6X3X6X3X6X3X6X6X5X5X5X5X6X6X3X4X4X3X6X6X4X5X6X6X6X6X6X6X4 .     ",
"  . . 3X6X6X6X6X3X:X/.C.n.B.n.n.Z.n.B.B.B.B.B.B.B.B.B.B.B.Z.n.n.B.B.B.B.B.B.D./.-X6X6X6X6X6X2X. #   ",
"  . 9 6X6X6X3Xn.s.s.s.s.s.s.s.s.p.d.p.d.p.d.p.d.p.s.p.p.p.s.s.s.s.s.s.s.s.s.s.s.s.s.n.5X6X6X6X6 .   ",
". . i.6X6X/.s.s.s.s.s.s.s.s.s.s.d.p.d.p.d.p.d.p.s.s.p.p.p.s.s.s.s.s.s.s.s.s.s.s.s.s.p.s.(.6X6Xq.. @ ",
"- . 2X6XS.s.s.s.s.s.s.s.s.s.s.s.p.d.p.d.p.d.p.d.s./ W W ] p.s.s.s.s.s.s.s.s.s.s.s.s.s.s.f.Z.5X3X# - ",
". . 6XT.s.s.s.s.s.s.s.s.s.s.s.s.d.p.d.p.d.p.d.p.B.W W W W b.s.s.s.s.s.s.s.s.s.s.s.s.s.s.s.s.T.4X. . ",
". . :Xs.s.s.s.s.s.s.s.s.7.<.p.s.p.d.p.d.p.d.p.d.|.W W W W (.p.d.s.s.s.s.s.s.p.p.p.p.p.p.s.s.s.3X. . ",
". . f.s.s.s.s.s.s.s.s.] W ~ ~ s.d.p.d.p.d.p.d.p.D.2.W / y.n.d.p.s.s.s.s.s.s.s.W W ] s.s.s.s.s.d.. . ",
". . s.s.s.s.s.s.s.s.f.~ W W W Z.p.d.p.d.p.d.p.d.p.3X6X6X*Xd.p.d.s.s.s.s.s.s.L./ W / s.s.s.s.s.s.. . ",
". . s.s.s.s.s.s.s.s.n.~ W W W XXd.p.d.p.d.p.d.p.p.p.p.d.p.p.d.p.s.s.s.s.s.s.j.:./ ].s.s.s.s.s.s.. . ",
". . s.s.s.s.s.s.s.s.p.XXW W :.(.p.d.p.d.p.d.p.d.p.d.p.d.p.d.p.d.s.s.s.s.s.s.s.D.#Xf.s.s.s.s.s.s.. . ",
". . p.s.s.s.s.s.s.s.s./.6X4X3Xs.d.p.d.p.d.p.d.p.d.p.d.p.d.p.d.p.s.s.s.s.s.s.s.s.s.s.s.s.s.s.s.5.. . ",
". . 3.s.s.s.s.s.s.s.s.s.s.s.s.s.p.d.p.d.p.d.p.d.p.d.p.d.p.d.p.d.s.s.s.s.s.s.s.s.s.s.s.s.s.s.s.a . . ",
". . T s.s.s.s.s.s.s.s.s.s.s.s.s.d.p.d.p.d.p.d.p.d.p.d.p.d.p.d.p.s.s._ _ p.s.s.s.s.s.s.s.s.s.s.. . . ",
". . m p.s.s.s.s.s.s.s.s.s.s.s.s.p.d.p.d.p.d.p.d.p.p.p.7.p.p.p.p.s.9.~ R -.s.s.s.s.s.s.s.s.s.s.. . . ",
". . u p.s.s.s.s.s.s.s.s.s.s.s.s.d.p.d.p.d.p.d.p.p.] W W / p.s.s.s.{.R / !.s.s.s.s.s.s.s.s.s.p.. . . ",
". . 1 d.s.s.s.s.s.p.+.+.p.s.s.p.p.d.p.d.p.d.p.d.x.W W W W / s.s.s.l.3X3XZ.s.s.s.s.s.s.s.s.s.s.w . . ",
". . . s.s.s.s.s.s.W W / / s.s.f.d.p.d.p.d.p.d.p.x.W W W W W j.s.p.p.p.s.s.s.s.s.s.s.s.s.s.s.s.V . . ",
". . . s.s.s.s.s.^.W W W W n.p.p.s.s.s.s.s.s.s.s.3XW W W W  .b.f.s.s.s.s.s.s.s.s.s.s.s.s.s.s.s.U . . ",
". . . s.s.s.s.s.`.W W W W (.f.p.s.s.s.s.s.s.s.s.XXJ.W W | 6Xf.p.s.s.s.s.s.s.s.s.s.s.s.s.s.s.s.S . . ",
". . . s.s.s.s.s.j.XX/ / *Xj.f.p.s.s.s.s.s.s.s.s.p.6X6X6X6XK.p.p.s.s.s.s.s.s.s.s.s.s.s.s.s.s.s.x . . ",
". . . s.s.s.s.s.p./.3X6XP.f.p.f.s.s.s.s.s.s.s.s.p.p.B.K.s.s.p.f.s.s.s.s.s.s.s.s.s.s.s.s.s.s.s.e . . ",
". . 3 s.s.s.s.s.p.d.p.d.p.d.j.p.s.s.s.s.s.s.s.s.s.s.s.s.s.s.s.s.s.s.s.s.s.s.p.,.>.p.s.s.s.s.s.w . . ",
". . b s.s.s.s.s.d.p.d.p.d.p.p.p.s.s.s.s.s.s.s.s.s.s.s.s.s.s.s.s.s.s.s.s.s.s.~ W ~ ~ s.s.s.s.s.x . . ",
". . [ s.s.s.s.s.p.d.p.d.p.d.p.p.] / +.p.s.s.s.s.s.s.s.s.s.s.s.s.s.s.s.s.s.S.W W W ~ D.p.s.s.s.@.. . ",
". . 7.s.s.s.s.s.d.p.d.p.d.p.p.W W W W / s.s.s.s.s.s.s.s.s.s.s.s.s.s.s.s.s.T.W W W ~ {.s.s.s.s.0.. . ",
". . s.s.s.s.s.s.s.s.s.s.s.s.;.W W W W W L.p.s.s.s.s.s.s.s.s.s.s.s.s.s.s.s.f..X/ ~ U.n.s.s.s.s.s.. . ",
". . s.s.s.s.s.s.s.s.s.s.s.s.] W W W W W _.s.s.s.s.s.s.s.s.s.s.s.s.s.s.s.s.s./.6X6X{.s.s.s.s.s.s.. . ",
". . s.s.s.s.s.s.s.s.s.s.d.p.U.W W W W ~ 3Xs.s.s.s.s.s.s.s.s.s.s.s.s.s.s.s.s.s.s.s.s.s.s.s.s.s.s.. . ",
". . &.s.s.s.s.s.s.s.s.s.p.d.4Xo.W W W U.{.s.s.s.s.s.s.s.s.s.s.s.s.s.s.s.s.s.s.s.s.s.s.s.s.s.s.&.. . ",
". . W p.s.s.s.s.s.s.s.s.d.p.B.4X3X$X6X6Xs.s.s.s.s.s.s.s.s.s.s.s.s.s.s.s.s.s.s.s.s.s.s.s.s.s.p.W . . ",
". . W W s.s.s.s.s.s.s.s.p.d.d.j.:X6X#Xs.s.s.s.s.s.s.s.s.s.s.s.s.s.s.s.s.s.s.s.s.s.s.s.s.s.s.W W . . ",
". . W W W p.s.s.s.s.s.s.s.s.s.s.s.s.s.s.s.s.s.s.s.s.s.s.s.s.s.s.s.s.s.s.s.s.s.s.s.s.s.s.e.W W W . . ",
". . E W W W =.s.s.s.s.s.s.s.s.s.s.s.s.s.s.s.s.s.s.s.s.s.s.s.s.s.s.s.s.s.s.s.s.s.s.s.s.&.W W W W . . ",
"$ . P R ~ R R ~ ..7.p.p.d.p.d.p.p.s.s.p.s.s.p.s.s.p.s.p.s.p.p.p.s.p.s.p.s.p.s.p.7...W W W W W J . - ",
"  @ i Q ~ ~ ~ ~ W W W W W W W / W W ~ W W ~ W W ~ W ~ W ~ W ~ W ~ W ~ W ~ W ~ W W W W W W W W t .   ",
"  . . Q R ~ ~ R W W W W W W W W W W W W W W W W W W W W W W W W W W W W W W W W W W W W W W W . $   ",
"  # @ f R ~ ~ R W W W W W W W W W W W W W W W W W W W W W W W W W W W W W W W W W W W W W W p . -   ",
"    # . L Q Q ~ W W W W W W W W W W W W W W W W W W W W W W W W W W W W W W W W W W W W W H . .     ",
"      . . P R ~ W W W W W W W W W ~ W W W W W W W W W W W W W W W W W W W W W W W W W ~ J @ .       ",
"      @ @ . z / W W W W W W W W Z I W ~ W W W W W W W W W W W W W ~ W W ~ ~ ~ ~ W W ~ l . . @       ",
"          @ - @ z R W W W R 7 . . . . h n g 5 . . . . @ 1 0 s k n A Z C h s y s s h . . .           ",
"            - . . . . . . . . . . . . . . . . . . . . . . . . . . . . . . . . . . . . #             ",
"                - @ . . . . . . . . . . . . . . . . . . . . . . . . . . . . . . # @                 "
};
