/* XPM */
static char *_5595c68a3fb4decfb72a4e52364fbc60Fhr99jnOyvnITCC[] = {
/* columns rows colors chars-per-pixel */
"50 50 246 2 ",
"   c None",
".  c #030203",
"X  c gray1",
"o  c #030304",
"O  c #030305",
"+  c #030306",
"@  c #040304",
"#  c #050205",
"$  c #040306",
"%  c #040404",
"&  c #040405",
"*  c #050405",
"=  c #040406",
"-  c #050506",
";  c #060406",
":  c #070606",
">  c #080607",
",  c #080707",
"<  c #050408",
"1  c #06050A",
"2  c #07060C",
"3  c #090809",
"4  c #0B0808",
"5  c #0B0909",
"6  c #0C0A0A",
"7  c #0C0C0D",
"8  c #0D0D0E",
"9  c #0B0912",
"0  c #0B0913",
"q  c #0C0A15",
"w  c #0E0B17",
"e  c #110E1E",
"r  c #121213",
"t  c #151010",
"y  c #151515",
"u  c #191413",
"i  c #1A1514",
"p  c #1F1917",
"a  c #191919",
"s  c #241D1B",
"d  c #251D1B",
"f  c #130F20",
"g  c #141021",
"h  c #1C1732",
"j  c #1D1935",
"k  c #211A39",
"l  c #241C3B",
"z  c #241C3C",
"x  c #241C3D",
"c  c gray15",
"v  c #2E2321",
"b  c #302724",
"n  c #362927",
"m  c #382C28",
"M  c #392F29",
"N  c #3B2F2B",
"B  c #3F322E",
"V  c #3E3E3E",
"C  c #403531",
"Z  c #413531",
"A  c #443733",
"S  c #4A3A35",
"D  c #4B3E3A",
"F  c #4C3C38",
"G  c #4D3F3A",
"H  c #55433E",
"J  c #272040",
"K  c #282242",
"L  c #2A2346",
"P  c #2B2448",
"I  c #2C264D",
"U  c #302852",
"Y  c #382E60",
"T  c #382F61",
"R  c #3C3066",
"E  c #40356B",
"W  c #433972",
"Q  c #443A77",
"!  c #434343",
"~  c #595859",
"^  c #6A554F",
"/  c #695751",
"(  c #6B5851",
")  c #735C55",
"_  c #735F56",
"`  c #775E57",
"'  c #7A635B",
"]  c #7D635B",
"[  c #80655D",
"{  c #81675E",
"}  c #846861",
"|  c #856B62",
" . c #836D63",
".. c #846D62",
"X. c #8A7166",
"o. c #8B7267",
"O. c #8E7069",
"+. c #8C7368",
"@. c #8E7268",
"#. c #8E736A",
"$. c #8F746C",
"%. c #90756A",
"&. c #90756C",
"*. c #92776E",
"=. c #93776E",
"-. c #937970",
";. c #967A70",
":. c #987A71",
">. c #987C72",
",. c #9E8075",
"<. c #9E8278",
"1. c #A18278",
"2. c #A6867C",
"3. c #AB8A7D",
"4. c #A9897F",
"5. c #AA897F",
"6. c #4D4185",
"7. c #51458B",
"8. c #534791",
"9. c #544792",
"0. c #564994",
"q. c #594999",
"w. c #5A4999",
"e. c #5D4D9D",
"r. c #5E4F9F",
"t. c #5E4FA0",
"y. c #5E50A4",
"u. c #5F50A4",
"i. c #6051A3",
"p. c #6051A7",
"a. c #6251AA",
"s. c #6653AE",
"d. c #6455AD",
"f. c #6555AE",
"g. c #6555AF",
"h. c #6655B0",
"j. c #6857B1",
"k. c #6957B6",
"l. c #6958B2",
"z. c #6958B5",
"x. c #6958B6",
"c. c #6958B7",
"v. c #6A58B6",
"b. c #6A59B6",
"n. c #6A58B7",
"m. c #6B5AB7",
"M. c #6A58B9",
"N. c #7261B8",
"B. c #7768BB",
"V. c #7B6DBD",
"C. c #8074BF",
"Z. c #828182",
"A. c #848485",
"S. c #8D8D8D",
"D. c #989898",
"F. c #AE8D81",
"G. c #BB988C",
"H. c #BD988C",
"J. c gray68",
"K. c #BBBBBB",
"L. c #C59F92",
"P. c #C7A193",
"I. c #C6A194",
"U. c #C9A394",
"Y. c #CAA394",
"T. c #CDA698",
"R. c #CFA698",
"E. c #CEA699",
"W. c #CFA699",
"Q. c #D5AC9E",
"!. c #D7AC9F",
"~. c #DAB0A2",
"^. c #DBB1A3",
"/. c #DAB3A2",
"(. c #DDB1A2",
"). c #DFB3A4",
"_. c #E0B5A5",
"`. c #E1B5A5",
"'. c #E3B4A6",
"]. c #E1B7A6",
"[. c #E4B7A8",
"{. c #E4B9AA",
"}. c #E8BCAB",
"|. c #EFBDAE",
" X c #EDBFAF",
".X c #F0BFAF",
"XX c #F2C0AF",
"oX c #F4C2B1",
"OX c #F6C3B3",
"+X c #F8C4B4",
"@X c #F8C5B4",
"#X c #F9C5B4",
"$X c #F9C6B5",
"%X c #FAC6B5",
"&X c #FAC7B5",
"*X c #F9C7B6",
"=X c #FAC7B6",
"-X c #FDC7B7",
";X c #FBC8B6",
":X c #FCC8B6",
">X c #FCC8B7",
",X c #F9C9B8",
"<X c #FBC8B8",
"1X c #FDC8B8",
"2X c #FCC9B8",
"3X c #FDC9B8",
"4X c #FEC9B8",
"5X c #FEC9B9",
"6X c #FFC9B9",
"7X c #FCCAB9",
"8X c #FDCAB9",
"9X c #FECAB9",
"0X c #FFCAB9",
"qX c #FECBBA",
"wX c #FFCBBA",
"eX c #FECCBB",
"rX c #FFCCBB",
"tX c #A199CE",
"yX c #B4AFD6",
"uX c gray76",
"iX c #C6C4C6",
"pX c #CECECE",
"aX c #D4D4D5",
"sX c #D7D7D7",
"dX c #D8D8D8",
"fX c #DEDEDF",
"gX c #C9C4E1",
"hX c #CAC6E2",
"jX c #DFDCED",
"kX c #EEEEEE",
"lX c #EFEFEF",
"zX c #E3E1F1",
"xX c #F3F3F3",
"cX c #F4F4F4",
"vX c gray96",
"bX c #F1F0F8",
"nX c #F6F5FB",
"mX c gray98",
"MX c #FBFAFB",
"NX c #FBFBFB",
"BX c #FAFAFD",
"VX c #FDFDFE",
"CX c #FEFEFE",
"ZX c #FEFEFF",
"AX c #FFFEFF",
"SX c white",
/* pixels */
"                                                                                                    ",
"                                                                                                    ",
"                                                                                                    ",
"                                                            + + + X @                               ",
"                                  % % % <               + X D.xXCXCXfXZ.X +                         ",
"                              % 8 pXMXCXkXiXc @ %   X @ cXCXV.b.b.b.b.b.b.N.g +                     ",
"                          + ~ CXCXnXhXyXhXbXCXCXkX@ ! CXC.b.b.b.b.b.b.b.b.b.b.k.+ %                 ",
"                        X mXCXb.b.b.b.b.b.b.b.b.tXCXCXb.b.b.b.b.b.b.b.b.b.b.b.b.b.P @               ",
"                      + CXB.b.b.b.b.b.b.b.b.b.b.b.b.b.b.b.b.b.b.b.b.b.b.b.b.b.b.b.b.Y X             ",
"                    X BXb.b.b.b.b.b.b.b.b.b.b.b.b.b.b.b.b.b.b.b.b.b.b.b.b.b.b.b.b.b.b.l +           ",
"                  X zXb.b.b.b.b.b.b.b.b.b.b.b.b.b.b.b.b.b.b.b.b.b.b.b.b.b.b.b.b.b.b.b.b.+           ",
"                + jXb.b.b.b.b.b.b.b.b.b.b.b.b.b.b.b.b.b.b.b.b.b.b.b.b.b.b.b.b.b.b.b.b.b.b.+         ",
"              X K.b.b.b.b.b.b.b.b.b.b.b.b.b.b.b.b.b.b.b.b.b.b.b.b.b.b.b.b.b.b.b.b.b.b.b.b.R         ",
"              r b.b.b.b.b.b.b.b.b.b.b.b.b.b.b.b.b.b.b.b.b.b.b.b.b.b.b.b.b.b.b.b.b.b.b.b.b.b.+       ",
"            + b.b.b.b.b.b.b.b.b.b.b.b.b.b.b.b.b.b.b.b.b.b.b.b.b.b.b.b.b.b.b.b.b.b.b.b.b.b.b.L       ",
"          + W b.b.b.b.b.b.b.b.b.b.b.b.b.b.b.b.b.b.b.b.b.b.b.b.b.b.b.b.b.b.b.b.b.b.b.b.b.t.t.M.X     ",
"          + b.b.b.b.b.b.b.b.b.b.b.b.b.b.b.b.b.b.b.b.b.b.+ X b.b.b.b.b.b.b.b.b.b.b.b.b.b.f.X e X     ",
"        % 6.b.b.b.b.b.b.b.b.b.b.+ l.b.b.b.b.b.b.b.b.b.X L.' w b.k.@ b.b.b.b.b.b.b.b.b.b.b.+   +     ",
"        + b.b.b.b.b.b.b.b.b.b.b.b.+ r.b.b.9.2 b.b.b.+ #.0X0Xp l b.+ r.b.b.b.b.b.b.b.b.b.b.X         ",
"        I b.b.b.b.b.b.b.b.b.Q b.b.b.0 h.l.% a.b.f.% T.0X0X0X0Xi e + X b.b.b.b.b.b.b.b.b.b.+         ",
"      + b.b.b.b.b.b.b.b.b.U h.b.b.b.b.k.@ X b.J + ;X0X0X0X0X0X0X;.+ _ % b.b.b.b.b.b.b.b.b.+         ",
"      X b.b.b.b.b.b.b.b.b.X b.b.b.b.b.X ~.+ % +.0X0X0X0X0X0X0X0X0X0X0XN h b.b.b.b.b.b.b.b.X         ",
"      J b.b.b.b.b.b.b.b.b.+ b.b.b.k.+ ~.0X0X0X0X0X0X0X0X0X0X0X0X,X0X0X0Xs 0 x.b.b.b.b.b.b.+         ",
"    % p.b.b.b.b.b.b.b.b.b.X b.b.b.X ].0X0X0X0X0X0X0X0X0X0X0XX s ..<.0X0X0XF.% b.b.b.b.b.b.X         ",
"    X k.b.z 7.b.b.b.b.b.b.+ b.w.+ $X0X0X0X0X0X0X0X0X0X0X0X0X0X0X0X0X0X0X0X0X*.9.b.b.b.b.b.+         ",
"    X b.f.+ u.b.b.b.b.b.0.% + N >X0X0X0X0X0X0X0X0X0X0X0X0X0X0XOX% V 8 i 0X0X0X% b.b.b.b.l.X         ",
"    + b.% % u.b.b.b.b.b.@ 0X0X,X% % % v 0X0X0X0X0X0X0X0X0X0X;Xy CXCXCXCX+ 0X0XF s.b.b.b.k           ",
"    X +   % R b.b.b.b.b.@ 0X0X3 CXCXCXCX% 0X0X0X0X0X0X0X0X0Xs CXCXCXCXCXaXW.0X0Xw b.b.b.X +         ",
"    +   % I.< b.b.b.b.w...0X6 CXCXCXCXCXNX) 0X0X0X0X0X0X0X0X+ CXCXCXCXCXCX3 0X0XX b.b.h ~.2.        ",
"        % rX+ k.b.b.b.0 $X0X% CXCXCXCXCXCX+ 0X0X0X0X0X0X0X0X4 CXCXCXCXCXvX% 0X0X=.u.h., 0X-X@       ",
"        @ 0XG.Y b.b.b.+ 0X0X% CXCXCXCXCXCX% 0X0X0X0X0X0X0X0XC a CXCXCXCX% n 0X0X0X< % 0X0XY.X       ",
"        X 0X0X+ b.b.b.% 0X0X&.aXCXCXCXCXdXX 0X0X0X0X0X0X0X0X^ _.% S.A.X + H.0X0X0X5.;X0X0X+         ",
"        X U.0X$X+ b.b.@ 0X0X0XX J.CXCXuX% F 0X0X0X0X0X0X0X0XO.<X[ rXL.0Xo.0X0X0X0X0X0X0XE.+         ",
"          + ,.0X).X f.G 0X0X0XX.% % % $.}. .0X0X0X0X0X0X0X0XF.<X} 0X+XoXQ.eX0X0X0X0X Xv +           ",
"            % + ].>X@ 5.0X0X0Xt A 0Xs 0X;.$X0X0X0X0X0X0X0X0X*X0X#.0X0X!.0X'.0X0X0X+ %               ",
"                X +X0X0X0X0X0X% >.0X% 0Xb 0X0X0X0X0X0X0X0X0X0X0X<.0X0X[ 0X0X0X0X,X@                 ",
"                  + -X0X0X0X0X0X[.0X% 0X>X0X0X0X0X0X0X0X0X0X0X0X0X0X0X) 0X0X0X0XC                   ",
"                    X 0X0X0X0X0X0X>XS 0X0X0X0X0X0X0X0X0X0X0X0X0X0X0X0X0X0X0X0X0X+                   ",
"                      + 0X0X0X0X0X0X0X0X0X0X0X0X0X0X0X0X0X0X0X0X0X0X0X0X0X0X0XH %                   ",
"                        + ,X0X0X0X0X0X0X0X0X0X0X0XN |.0X0X0X0X0X0X0X0X0X0X0X$X%                     ",
"                          + OX>X0X0X0X0X0X0X0X0X$.).0X0X0X0X0X0X0X0X0X0X0X>X+                       ",
"                            % -.0X0X0X0X0X0X0X0X0X0X0X0X0X0X0X0X0X0X0X0XXX+                         ",
"                              X + 0X0X0X0X0X0X0X0X0X0X0X0X0X0X0X0X0X0X-.X                           ",
"                                  X C 0X0X0X0X0X0X0X0X0X0X0X0X0X0X{.+ X                             ",
"                                    X + =.0X0X0X0X0X0X0X0X0X0X' % +                                 ",
"                                        + % ( $X0X0XE.^ X + X +                                     ",
"                                              + X + @                                               ",
"                                                                                                    ",
"                                                                                                    ",
"                                                                                                    "
};
